<svg height="469.33333pt" viewBox="0 0 469.33333 469.33333" width="469.33333pt" xmlns="http://www.w3.org/2000/svg"><path d="m469.332031 234.667969c0 129.601562-105.0625 234.664062-234.664062 234.664062-129.605469 0-234.667969-105.0625-234.667969-234.664062 0-129.605469 105.0625-234.667969 234.667969-234.667969 129.601562 0 234.664062 105.0625 234.664062 234.667969zm0 0" fill="#ffc107"/><g fill="#fafafa"><path d="m197.332031 341.332031c-8.832031 0-16-7.167969-16-16v-181.332031c0-8.832031 7.167969-16 16-16h80c35.285157 0 64 28.714844 64 64s-28.714843 64-64 64h-64v69.332031c0 8.832031-7.167969 16-16 16zm16-117.332031h64c17.644531 0 32-14.355469 32-32s-14.355469-32-32-32h-64zm0 0"/><path d="m261.332031 309.332031h-117.332031c-8.832031 0-16-7.167969-16-16s7.167969-16 16-16h117.332031c8.832031 0 16 7.167969 16 16s-7.167969 16-16 16zm0 0"/></g></svg>