<svg width="27" height="27" viewBox="0 0 27 27" fill="none" xmlns="http://www.w3.org/2000/svg">
<path d="M25.9618 0.373983C25.7109 0.208055 25.4304 0.0941222 25.1363 0.0386931C24.8421 -0.016736 24.5402 -0.0125753 24.2476 0.0509375C23.9551 0.11445 23.6777 0.23607 23.4313 0.408851C23.1849 0.581631 22.9743 0.802185 22.8116 1.05791L10.0483 21.1047L3.82384 15.2402C3.60423 15.0333 3.34678 14.8725 3.06618 14.767C2.78559 14.6614 2.48734 14.6133 2.18847 14.6252C1.58488 14.6493 1.0154 14.9167 0.605307 15.3686C0.195217 15.8206 -0.0218905 16.42 0.00174622 17.0351C0.025383 17.6501 0.287828 18.2304 0.731345 18.6483L8.9041 26.3479C8.9041 26.3479 9.13871 26.5537 9.24728 26.6257C9.49821 26.7917 9.77879 26.9057 10.073 26.9612C10.3672 27.0167 10.6692 27.0126 10.9619 26.9491C11.2545 26.8856 11.532 26.7639 11.7784 26.5911C12.0249 26.4182 12.2355 26.1976 12.3982 25.9417L26.633 3.58397C26.7958 3.32832 26.9076 3.04247 26.962 2.74277C27.0164 2.44307 27.0123 2.13538 26.95 1.83729C26.8877 1.5392 26.7683 1.25654 26.5988 1.00546C26.4292 0.754379 26.2128 0.539802 25.9618 0.373983Z" fill="url(#paint0_linear_253_1301)"/>
<defs>
<linearGradient id="paint0_linear_253_1301" x1="-8.38859" y1="-14.6355" x2="30.0181" y2="-12.8941" gradientUnits="userSpaceOnUse">
<stop stop-color="#FA8116"/>
<stop offset="1" stop-color="#FFCA2B"/>
</linearGradient>
</defs>
</svg>
