<svg width="11" height="11" viewBox="0 0 11 11" fill="none" xmlns="http://www.w3.org/2000/svg">
<path d="M0 5.5C0 6.71405 0.710948 7.52516 1.91921 7.52516H3.60858C3.55705 8.05721 3.53158 8.53947 3.53158 8.97368C3.53158 10.1102 4.57947 11 5.63895 11C6.45758 11 6.68684 10.5311 6.82521 9.44668C6.82753 9.427 6.87963 9.00553 6.89758 8.87063C6.92942 8.635 6.96242 8.42484 7.00295 8.21468C7.161 7.39605 7.57553 6.51026 8.00279 5.99095C8.08308 6.06269 8.17172 6.1245 8.26679 6.17505C8.50242 6.30126 8.778 6.36842 9.17458 6.36842H9.35174C9.74832 6.36842 10.0233 6.30126 10.2595 6.17505C10.4926 6.05166 10.6832 5.86104 10.8066 5.62795C10.9328 5.39232 11 5.11674 11 4.72016V1.64826C11 1.25168 10.9328 0.976684 10.8066 0.740474C10.6804 0.504842 10.4952 0.319579 10.2595 0.193368C10.0239 0.0671577 9.74832 0 9.35174 0H9.17458C8.778 0 8.503 0.0671577 8.26679 0.193368C8.13074 0.266315 8.01147 0.358948 7.91074 0.469527C7.50721 0.16558 6.93811 0 6.18258 0H3.60511C2.74479 0 2.12011 0.320158 1.72179 0.860894C1.55737 1.08321 1.48616 1.23837 1.37616 1.53595C1.35204 1.5822 1.32034 1.62408 1.28237 1.65984C1.26732 1.67605 1.21868 1.72468 1.16195 1.78142C1.08379 1.859 0.99058 1.95221 0.948317 1.99737C0.761316 2.19768 0.614842 2.39684 0.49558 2.63595C0.288896 3.04874 0.260526 3.36426 0.300473 3.894C0.315526 4.09663 0.316106 4.16263 0.305105 4.20779C0.285421 4.29174 0.261683 4.36121 0.219999 4.46658L0.181789 4.56268C0.0544205 4.88226 0 5.12484 0 5.5ZM5.75011 8.71605C5.73042 8.86137 5.67542 9.30542 5.67658 9.30021C5.64068 9.57984 5.61058 9.74484 5.57932 9.83979C5.13932 9.80563 4.68947 9.40558 4.68947 8.97368C4.68947 8.42079 4.73579 7.76832 4.82958 7.018C4.83976 6.93656 4.8325 6.85388 4.80829 6.77546C4.78409 6.69703 4.74348 6.62465 4.68917 6.56312C4.63486 6.50158 4.56809 6.45229 4.49328 6.41853C4.41847 6.38476 4.33734 6.36729 4.25526 6.36726H1.91921C1.38658 6.36726 1.1579 6.10616 1.1579 5.5C1.1579 5.28579 1.18105 5.18332 1.25805 4.98995L1.29626 4.89326C1.35207 4.758 1.39736 4.61864 1.43174 4.47642C1.48037 4.27032 1.47979 4.13716 1.4549 3.80716C1.42942 3.47021 1.44216 3.33126 1.53074 3.15353C1.59983 3.01947 1.68862 2.89652 1.79416 2.78879C1.81732 2.76332 1.87984 2.70079 1.94584 2.63479C2.02053 2.56068 2.09926 2.48195 2.13053 2.44837C2.28453 2.28279 2.39163 2.12763 2.46226 1.93774C2.53637 1.738 2.57342 1.65637 2.65332 1.54753C2.83511 1.30147 3.11532 1.1579 3.60511 1.1579H6.18316C7.24437 1.1579 7.52458 1.48674 7.52458 2.31579V4.83421C6.76616 5.47337 6.10153 6.77716 5.86647 7.99526C5.8219 8.22974 5.78484 8.46016 5.75011 8.71605ZM9.71358 5.15437C9.64642 5.18968 9.55263 5.21053 9.35174 5.21053H9.17458C8.97368 5.21053 8.87989 5.18968 8.81274 5.15379C8.78161 5.13834 8.7564 5.11312 8.74095 5.082C8.70505 5.01484 8.68421 4.92163 8.68421 4.72016V1.64826C8.68421 1.44679 8.70505 1.35358 8.74095 1.28642C8.7563 1.25508 8.78152 1.22966 8.81274 1.21405C8.87989 1.17874 8.97368 1.1579 9.17458 1.1579H9.35174C9.55263 1.1579 9.64642 1.17874 9.71358 1.21463C9.7447 1.23009 9.76991 1.2553 9.78537 1.28642C9.82126 1.35358 9.84211 1.44737 9.84211 1.64826V4.72016C9.84211 4.92163 9.82126 5.01484 9.78537 5.082C9.76991 5.11312 9.7447 5.13891 9.71358 5.15437Z" fill="#C6C6C6"/>
</svg>
