<svg width="9" height="19" viewBox="0 0 9 19" fill="none" xmlns="http://www.w3.org/2000/svg">
<path d="M8.51884 16.1608C8.58816 15.8293 8.59766 15.5118 8.563 15.2205C8.51213 14.7873 8.37628 14.4116 8.19013 14.1109C8.00229 13.8073 7.76527 13.5731 7.45893 13.4115C7.31023 13.7593 7.14476 14.2629 7.22693 14.813C7.3024 15.291 7.54836 15.6337 7.81614 15.8383C8.08223 16.0496 8.36231 16.1312 8.51884 16.1608Z" fill="#C6C6C6"/>
<path d="M8.53061 16.6114C8.44117 16.8814 8.30924 17.1263 8.12532 17.3359C7.73735 17.7826 7.17274 17.9821 6.6372 18.0202C6.09998 18.0654 5.60859 17.9408 5.34473 17.8586C5.36317 17.796 5.40063 17.6993 5.46156 17.583C5.55157 17.4114 5.69636 17.2023 5.90823 17.0122C6.1201 16.8222 6.39513 16.655 6.74564 16.5404C6.95919 16.4761 7.16379 16.4342 7.34939 16.4269C7.53722 16.4124 7.70996 16.4236 7.86537 16.4443C8.17507 16.484 8.41825 16.5661 8.53061 16.6114Z" fill="#C6C6C6"/>
<path d="M6.22587 12.5563C6.4724 12.7894 6.63731 13.0678 6.7329 13.4026C6.78154 13.5687 6.8106 13.7509 6.82346 13.9387C6.83352 14.1305 6.82458 14.3323 6.79271 14.5391C6.74799 14.8226 6.65575 15.116 6.5037 15.4067C6.43438 15.3704 6.34103 15.3151 6.23761 15.2385C6.13866 15.1552 6.02797 15.0529 5.93126 14.9204C5.73951 14.6532 5.59137 14.2792 5.64951 13.8068C5.71379 13.2713 5.99891 12.8414 6.22587 12.5563Z" fill="#C6C6C6"/>
<path d="M6.43747 15.8724C6.28542 16.1016 6.09759 16.3 5.87454 16.446C5.39825 16.7629 4.81911 16.8082 4.30816 16.7087C3.79777 16.6103 3.36284 16.3783 3.13867 16.2307C3.17277 16.1782 3.23091 16.0971 3.31532 16.0066C3.56968 15.7254 4.07224 15.3782 4.785 15.3519C5.00581 15.3391 5.19924 15.3637 5.38036 15.3961C5.46925 15.4134 5.5531 15.4364 5.63192 15.4632C5.71298 15.4867 5.78789 15.5141 5.85777 15.5437C5.99641 15.6052 6.1194 15.6661 6.21723 15.7254C6.3145 15.7857 6.38996 15.8394 6.43747 15.8724Z" fill="#C6C6C6"/>
<path d="M5.34914 11.5461C5.53027 11.8301 5.6253 12.1336 5.64095 12.4718C5.64486 12.5563 5.64263 12.6435 5.63536 12.7329C5.63033 12.8196 5.61971 12.909 5.60238 13.0001C5.56716 13.1846 5.51349 13.3719 5.43467 13.5597C5.3251 13.8146 5.16913 14.0701 4.9595 14.3077C4.90304 14.2568 4.82757 14.1825 4.74875 14.0857C4.67328 13.9857 4.59669 13.8605 4.53408 13.7151C4.41669 13.4177 4.36358 13.032 4.5257 12.5993C4.70347 12.1107 5.07243 11.7641 5.34914 11.5461Z" fill="#C6C6C6"/>
<path d="M4.72033 14.6962C4.52076 14.8751 4.3005 15.0098 4.0523 15.0953C3.92149 15.1395 3.789 15.168 3.65483 15.1825C3.5229 15.196 3.39209 15.1926 3.26183 15.1786C2.99798 15.1535 2.75145 15.0702 2.52113 14.9668C2.29584 14.86 2.0918 14.7286 1.92577 14.5989C1.76309 14.467 1.62725 14.3429 1.54004 14.2473C1.58476 14.2054 1.65855 14.1428 1.75806 14.0779C2.06329 13.8739 2.61952 13.6631 3.29426 13.8073C3.70962 13.8906 4.01652 14.069 4.25466 14.2445C4.37094 14.3345 4.46822 14.4251 4.54872 14.5022C4.62754 14.5805 4.68344 14.6515 4.72033 14.6962Z" fill="#C6C6C6"/>
<path d="M4.69196 10.2553C4.7937 10.565 4.8099 10.8764 4.74394 11.2006C4.72773 11.2811 4.70481 11.3627 4.6763 11.4455C4.64891 11.5271 4.61872 11.6082 4.58071 11.6903C4.50468 11.8536 4.40405 12.019 4.28554 12.175C4.12119 12.3874 3.91212 12.5864 3.65552 12.7575C3.61527 12.6949 3.56049 12.6077 3.51297 12.4959C3.46881 12.3824 3.42409 12.2477 3.40341 12.0951C3.36539 11.7876 3.41066 11.4125 3.66558 11.0458C3.95068 10.6304 4.37946 10.3939 4.69196 10.2553Z" fill="#C6C6C6"/>
<path d="M3.35414 13.1242C3.12494 13.2421 2.88512 13.3159 2.633 13.3349C2.36523 13.3567 2.1064 13.3153 1.87217 13.2265C1.63179 13.1415 1.41824 13.0073 1.22929 12.8564C1.03811 12.7071 0.886606 12.5327 0.755235 12.3756C0.63225 12.2141 0.538338 12.0642 0.474609 11.9552C0.581383 11.896 0.820648 11.7881 1.1337 11.7551C1.45011 11.7188 1.82577 11.7613 2.22771 11.9513C2.41163 12.0397 2.56368 12.1436 2.69785 12.2515C2.76325 12.3057 2.82196 12.3622 2.87506 12.4192C2.93097 12.4746 2.98128 12.531 3.026 12.5869C3.07016 12.6423 3.10929 12.6976 3.14395 12.7507C3.18085 12.8027 3.21271 12.8525 3.2401 12.8989C3.29544 12.9922 3.33234 13.0716 3.35414 13.1242Z" fill="#C6C6C6"/>
<path d="M4.38252 8.92763C4.41103 9.24628 4.34787 9.54704 4.2137 9.83717C4.14103 9.98307 4.05661 10.1239 3.94593 10.2604C3.83356 10.3979 3.70779 10.5281 3.55685 10.6478C3.35392 10.8088 3.11019 10.9479 2.83067 11.0491C2.80719 10.9809 2.77924 10.8853 2.75856 10.7696C2.73899 10.6539 2.7362 10.5153 2.74906 10.3682C2.76639 10.2195 2.80943 10.0591 2.88378 9.90146C2.96652 9.74158 3.0744 9.58505 3.23708 9.44138C3.60324 9.11547 4.05158 8.98969 4.38252 8.92763Z" fill="#C6C6C6"/>
<path d="M2.42113 11.2599C2.1774 11.3158 1.93535 11.3259 1.69497 11.2856C1.43949 11.2415 1.20638 11.1414 1.00793 11.0016C0.803882 10.8641 0.635054 10.688 0.49418 10.5019C0.349952 10.3163 0.249886 10.1178 0.164355 9.93948C0.086651 9.75948 0.0346595 9.59792 0 9.48053C0.0559025 9.46487 0.143671 9.44699 0.253799 9.43692C0.424861 9.42127 0.650707 9.42854 0.893882 9.4945C1.14041 9.55991 1.3903 9.68513 1.64521 9.89141C1.79671 10.0177 1.91466 10.1514 2.01417 10.2844C2.0628 10.3509 2.10361 10.418 2.14051 10.484C2.17964 10.5494 2.21318 10.6137 2.24113 10.6768C2.29592 10.8032 2.33672 10.9206 2.36747 11.0206C2.3971 11.1213 2.41163 11.2051 2.42113 11.2599Z" fill="#C6C6C6"/>
<path d="M4.39027 7.54686C4.3461 7.85711 4.2153 8.12936 4.02299 8.37366C3.82622 8.61571 3.55565 8.83094 3.21855 8.98634C2.98935 9.09088 2.72997 9.16468 2.44375 9.19263C2.43145 9.05399 2.42753 8.80578 2.52816 8.5341C2.57679 8.39881 2.65729 8.25849 2.76182 8.12712C2.87419 7.99575 3.01507 7.87388 3.19675 7.77494C3.61714 7.55077 4.0638 7.5312 4.39027 7.54686Z" fill="#C6C6C6"/>
<path d="M1.98653 9.22107C1.74727 9.21324 1.51639 9.16405 1.30228 9.06734C0.841087 8.86385 0.540328 8.46527 0.364235 8.05103C0.277586 7.84475 0.223928 7.63624 0.18871 7.44952C0.158523 7.26393 0.145656 7.10013 0.140625 6.98218C0.258579 6.98162 0.503441 7.00006 0.775686 7.11075C1.05073 7.22032 1.34365 7.41989 1.58627 7.75363C1.811 8.06109 1.90882 8.36688 1.95746 8.63018C2.0005 8.89236 1.99883 9.11262 1.98653 9.22107Z" fill="#C6C6C6"/>
<path d="M4.72432 6.18892C4.61307 6.47346 4.4258 6.7021 4.18989 6.88993C3.94895 7.07497 3.64428 7.21641 3.29266 7.28461C3.05395 7.32877 2.79289 7.33827 2.51953 7.29802C2.53015 7.23094 2.54971 7.13926 2.58325 7.03472C2.61791 6.93074 2.67662 6.81502 2.75153 6.69875C2.82867 6.58303 2.936 6.47011 3.06458 6.3706C3.19875 6.27277 3.36142 6.19115 3.55205 6.13804C3.99926 6.02289 4.42021 6.10171 4.72432 6.18892Z" fill="#C6C6C6"/>
<path d="M2.07773 7.13873C1.85579 7.07221 1.65174 6.97159 1.47285 6.83071C1.09439 6.52996 0.905451 6.08721 0.83669 5.66011C0.772403 5.23525 0.82774 4.83332 0.877493 4.61138C0.929482 4.62424 1.00774 4.64828 1.09886 4.68685C1.39682 4.80872 1.8284 5.10892 2.05033 5.67074C2.18897 6.01062 2.20965 6.31921 2.19064 6.57636C2.18338 6.70549 2.16101 6.81953 2.13865 6.91569C2.11908 7.01184 2.09505 7.08842 2.07773 7.13873Z" fill="#C6C6C6"/>
<path d="M5.31227 5.01333C5.13897 5.25595 4.92766 5.4421 4.65486 5.56397C4.52349 5.6277 4.37814 5.67578 4.21994 5.70541C4.06676 5.73783 3.90073 5.75236 3.72631 5.74565C3.49152 5.73615 3.24667 5.68863 2.99902 5.5936C3.02027 5.53099 3.06219 5.45049 3.11698 5.35992C3.1712 5.26824 3.24779 5.17098 3.3473 5.07985C3.44345 4.9865 3.56587 4.90208 3.71234 4.83836C3.85545 4.77239 4.02763 4.73102 4.22105 4.72264C4.65821 4.70307 5.04953 4.8719 5.31227 5.01333Z" fill="#C6C6C6"/>
<path d="M2.63019 5.2688C2.43621 5.15867 2.26851 5.0178 2.13434 4.84562C1.84533 4.48001 1.76482 4.02441 1.79501 3.61017C1.80898 3.40333 1.85539 3.21103 1.90235 3.04109C1.9549 2.87506 2.01415 2.73586 2.06055 2.63579C2.16005 2.68611 2.35515 2.8063 2.53292 3.0137C2.71405 3.22165 2.86834 3.50732 2.92983 3.88578C2.9835 4.23349 2.93542 4.52865 2.86163 4.76624C2.78505 5.00215 2.68554 5.18159 2.63019 5.2688Z" fill="#C6C6C6"/>
<path d="M6.07703 4.05234C5.86907 4.25359 5.62254 4.38105 5.34583 4.44757C5.06967 4.51298 4.75437 4.51242 4.43125 4.43248C4.21435 4.37769 3.99243 4.28378 3.77832 4.14234C3.8141 4.08924 3.86664 4.01936 3.93652 3.94445C4.00807 3.87178 4.10143 3.79631 4.21044 3.72811C4.43293 3.59562 4.73704 3.50506 5.10488 3.56599C5.52359 3.63531 5.85677 3.86675 6.07703 4.05234Z" fill="#C6C6C6"/>
<path d="M3.52064 3.69122C3.36131 3.54532 3.23218 3.37761 3.14385 3.19034C2.94987 2.78616 2.96664 2.34118 3.08068 1.95993C3.19192 1.57811 3.39765 1.26674 3.52623 1.09903C3.6112 1.16779 3.77051 1.32152 3.89406 1.55128C4.01872 1.78048 4.11432 2.09018 4.08805 2.45131C4.08022 2.62237 4.04835 2.77386 4.00251 2.90691C3.95947 3.04276 3.90524 3.16295 3.84375 3.26525C3.72747 3.47377 3.59051 3.61855 3.52064 3.69122Z" fill="#C6C6C6"/>
<path d="M7.03457 3.25466C6.91662 3.33349 6.78748 3.38324 6.66058 3.42572C6.59629 3.44529 6.53033 3.45927 6.46213 3.46877C6.3956 3.47995 6.32853 3.48722 6.25921 3.4889C6.18989 3.49057 6.11945 3.48722 6.04733 3.47939C5.97746 3.47324 5.90646 3.46262 5.83435 3.44641C5.69068 3.4151 5.54141 3.362 5.39774 3.291C5.20544 3.19764 5.01761 3.0646 4.84375 2.88962C4.92928 2.79962 5.10091 2.66993 5.33402 2.58607C5.45421 2.54806 5.58893 2.52178 5.73428 2.51899C5.88354 2.52123 6.04398 2.54806 6.21001 2.61011C6.59126 2.75881 6.86127 3.03608 7.03457 3.25466Z" fill="#C6C6C6"/>
<path d="M4.63374 2.43677C4.51187 2.26906 4.42522 2.08905 4.3777 1.89395C4.27261 1.4758 4.37323 1.06269 4.54989 0.726152C4.72542 0.387942 4.97475 0.136379 5.12513 -2.28882e-05C5.15643 0.0357547 5.19836 0.0938966 5.24252 0.168247C5.39234 0.415336 5.54663 0.861437 5.40519 1.37854C5.3655 1.53786 5.30736 1.67426 5.23916 1.79109C5.17319 1.91073 5.09885 2.01358 5.02171 2.098C4.87021 2.27017 4.71759 2.38478 4.63374 2.43677Z" fill="#C6C6C6"/>
</svg>
