<svg width="9" height="19" viewBox="0 0 9 19" fill="none" xmlns="http://www.w3.org/2000/svg">
<path d="M0.0638431 16.1608C-0.00603502 15.8293 -0.0149707 15.5118 0.0196889 15.2205C0.0705601 14.7873 0.206399 14.4116 0.392554 14.1109C0.580386 13.8073 0.817417 13.5731 1.12376 13.4115C1.27246 13.7593 1.43793 14.2629 1.35576 14.813C1.28029 15.291 1.03432 15.6337 0.766544 15.8383C0.499889 16.0496 0.22037 16.1312 0.0638431 16.1608Z" fill="#C6C6C6"/>
<path d="M0.0517578 16.6114C0.141202 16.8814 0.273132 17.1263 0.457051 17.3359C0.845014 17.7826 1.40964 17.9821 1.94518 18.0202C2.4824 18.0654 2.97378 17.9408 3.23764 17.8586C3.21919 17.796 3.18174 17.6993 3.1208 17.583C3.0308 17.4114 2.88601 17.2023 2.67414 17.0122C2.46227 16.8222 2.18724 16.655 1.83673 16.5404C1.62318 16.4761 1.41858 16.4342 1.23298 16.4269C1.04515 16.4124 0.872406 16.4236 0.716997 16.4443C0.407297 16.484 0.164122 16.5661 0.0517578 16.6114Z" fill="#C6C6C6"/>
<path d="M2.35641 12.5563C2.10988 12.7894 1.94496 13.0678 1.84937 13.4026C1.80073 13.5687 1.77167 13.7509 1.75881 13.9387C1.74875 14.1305 1.75769 14.3323 1.78955 14.5391C1.83428 14.8226 1.92651 15.116 2.07857 15.4067C2.14789 15.3704 2.24124 15.3151 2.34466 15.2385C2.44361 15.1552 2.5543 15.0529 2.65101 14.9204C2.84276 14.6532 2.9909 14.2792 2.93276 13.8068C2.86847 13.2713 2.58337 12.8414 2.35641 12.5563Z" fill="#C6C6C6"/>
<path d="M2.14453 15.8724C2.29659 16.1016 2.48441 16.3 2.70746 16.446C3.18375 16.7629 3.76291 16.8082 4.27386 16.7087C4.78425 16.6103 5.21916 16.3783 5.44333 16.2307C5.40923 16.1782 5.35054 16.0971 5.26668 16.0066C5.01233 15.7254 4.50976 15.3782 3.79701 15.3519C3.57619 15.3391 3.38277 15.3637 3.20164 15.3961C3.1122 15.4134 3.02835 15.4364 2.95008 15.4632C2.86902 15.4867 2.79412 15.5141 2.72368 15.5437C2.5856 15.6052 2.46262 15.6661 2.36479 15.7254C2.26752 15.7857 2.19205 15.8394 2.14453 15.8724Z" fill="#C6C6C6"/>
<path d="M3.23316 11.5461C3.05204 11.8301 2.95701 12.1336 2.94136 12.4718C2.93745 12.5563 2.93968 12.6435 2.94695 12.7329C2.95198 12.8196 2.96261 12.909 2.97938 13.0001C3.01515 13.1846 3.06882 13.3719 3.14764 13.5597C3.25721 13.8146 3.41318 14.0701 3.62281 14.3077C3.67927 14.2568 3.75474 14.1825 3.83356 14.0857C3.90903 13.9857 3.98562 13.8605 4.04823 13.7151C4.16562 13.4177 4.21873 13.032 4.05661 12.5993C3.87828 12.1107 3.50988 11.7641 3.23316 11.5461Z" fill="#C6C6C6"/>
<path d="M3.8623 14.6962C4.06188 14.8751 4.28213 15.0098 4.52978 15.0953C4.66115 15.1395 4.79364 15.168 4.92725 15.1825C5.05974 15.196 5.19055 15.1926 5.3208 15.1786C5.58466 15.1535 5.83119 15.0702 6.06151 14.9668C6.28624 14.86 6.49084 14.7286 6.65687 14.5989C6.81955 14.467 6.95539 14.3429 7.0426 14.2473C6.99788 14.2054 6.92408 14.1428 6.82458 14.0779C6.51935 13.8739 5.96312 13.6631 5.28837 13.8073C4.87302 13.8906 4.56612 14.069 4.32798 14.2445C4.2117 14.3345 4.11443 14.4251 4.03393 14.5022C3.95511 14.5805 3.8992 14.6515 3.8623 14.6962Z" fill="#C6C6C6"/>
<path d="M3.8913 10.2553C3.78955 10.565 3.77334 10.8764 3.8393 11.2006C3.85551 11.2811 3.87843 11.3627 3.90694 11.4455C3.93433 11.5271 3.96452 11.6082 4.00253 11.6903C4.07856 11.8536 4.17919 12.019 4.2977 12.175C4.46206 12.3874 4.67113 12.5864 4.92772 12.7575C4.96797 12.6949 5.02275 12.6077 5.07027 12.4959C5.11443 12.3824 5.15916 12.2477 5.17985 12.0951C5.21786 11.7876 5.17258 11.4125 4.91766 11.0458C4.63256 10.6304 4.20379 10.3939 3.8913 10.2553Z" fill="#C6C6C6"/>
<path d="M5.22852 13.1242C5.45772 13.2421 5.69754 13.3159 5.94966 13.3349C6.21743 13.3567 6.47626 13.3153 6.71049 13.2265C6.95087 13.1415 7.16442 13.0073 7.35337 12.8564C7.54455 12.7071 7.69605 12.5327 7.82742 12.3756C7.95041 12.2141 8.04376 12.0642 8.10805 11.9552C8.00128 11.896 7.76202 11.7881 7.44897 11.7551C7.13256 11.7188 6.75689 11.7613 6.35495 11.9513C6.17047 12.0397 6.01898 12.1436 5.88481 12.2515C5.81941 12.3057 5.76071 12.3622 5.70761 12.4192C5.6517 12.4746 5.60139 12.531 5.55667 12.5869C5.51251 12.6423 5.47337 12.6976 5.43871 12.7507C5.40181 12.8027 5.36995 12.8525 5.34256 12.8989C5.28722 12.9922 5.25032 13.0716 5.22852 13.1242Z" fill="#C6C6C6"/>
<path d="M4.20009 8.92763C4.17158 9.24628 4.23475 9.54704 4.36892 9.83717C4.44159 9.98307 4.526 10.1239 4.63668 10.2604C4.74905 10.3979 4.87484 10.5281 5.02577 10.6478C5.2287 10.8088 5.47243 10.9479 5.75194 11.0491C5.77542 10.9809 5.80337 10.8853 5.82405 10.7696C5.84362 10.6539 5.84642 10.5153 5.83356 10.3682C5.81623 10.2195 5.77318 10.0591 5.69883 9.90146C5.6161 9.74158 5.50821 9.58505 5.34553 9.44138C4.97937 9.11547 4.53103 8.98969 4.20009 8.92763Z" fill="#C6C6C6"/>
<path d="M6.16113 11.2599C6.40487 11.3158 6.64693 11.3259 6.88731 11.2856C7.14278 11.2415 7.37589 11.1414 7.57434 11.0016C7.77838 10.8641 7.94721 10.688 8.08809 10.5019C8.23176 10.3163 8.33238 10.1178 8.41791 9.93948C8.49562 9.75948 8.54761 9.59792 8.58227 9.48053C8.52636 9.46487 8.43859 9.44699 8.32847 9.43692C8.15741 9.42127 7.93156 9.42854 7.68838 9.4945C7.44185 9.55991 7.19197 9.68513 6.93705 9.89141C6.78556 10.0177 6.6676 10.1514 6.5681 10.2844C6.51946 10.3509 6.47865 10.418 6.44176 10.484C6.40263 10.5494 6.36909 10.6137 6.34113 10.6768C6.28635 10.8032 6.24554 10.9206 6.2148 11.0206C6.18517 11.1213 6.17064 11.2051 6.16113 11.2599Z" fill="#C6C6C6"/>
<path d="M4.19141 7.54686C4.23557 7.85711 4.36639 8.12936 4.55869 8.37366C4.75547 8.61571 5.02603 8.83094 5.36256 8.98634C5.59232 9.09088 5.85172 9.16468 6.13794 9.19263C6.15023 9.05399 6.15414 8.80578 6.05351 8.5341C6.00488 8.39881 5.92439 8.25849 5.81985 8.12712C5.70749 7.99575 5.56661 7.87388 5.38492 7.77494C4.96454 7.55077 4.51788 7.5312 4.19141 7.54686Z" fill="#C6C6C6"/>
<path d="M6.59573 9.22107C6.83499 9.21324 7.06587 9.16405 7.27997 9.06734C7.74117 8.86385 8.04193 8.46527 8.21802 8.05103C8.30467 7.84475 8.35834 7.63624 8.39356 7.44952C8.42374 7.26393 8.4366 7.10013 8.44163 6.98218C8.32368 6.98162 8.07883 7.00006 7.80658 7.11075C7.53154 7.22032 7.2386 7.41989 6.99543 7.75363C6.77126 8.06109 6.67344 8.36688 6.62424 8.63018C6.58176 8.89236 6.58287 9.11262 6.59573 9.22107Z" fill="#C6C6C6"/>
<path d="M3.8584 6.18892C3.96964 6.47346 4.15692 6.7021 4.39282 6.88993C4.63376 7.07497 4.93843 7.21641 5.29006 7.28461C5.52876 7.32877 5.78983 7.33827 6.06319 7.29802C6.05257 7.23094 6.03301 7.13926 5.99891 7.03472C5.96481 6.93074 5.90611 6.81502 5.8312 6.69875C5.75405 6.58303 5.64672 6.47011 5.51814 6.3706C5.38398 6.27277 5.2213 6.19115 5.03067 6.13804C4.58345 6.02289 4.16251 6.10171 3.8584 6.18892Z" fill="#C6C6C6"/>
<path d="M6.50469 7.13873C6.72662 7.07221 6.93066 6.97159 7.10955 6.83071C7.48801 6.52996 7.67695 6.08721 7.74515 5.66011C7.81 5.23525 7.75466 4.83332 7.70491 4.61138C7.65292 4.62424 7.57466 4.64828 7.48354 4.68685C7.18558 4.80872 6.754 5.10892 6.53207 5.67074C6.39343 6.01062 6.37275 6.31921 6.39176 6.57636C6.39902 6.70549 6.42139 6.81953 6.44375 6.91569C6.46332 7.01184 6.4868 7.08842 6.50469 7.13873Z" fill="#C6C6C6"/>
<path d="M3.26953 5.01333C3.44283 5.25595 3.65415 5.4421 3.92695 5.56397C4.05832 5.6277 4.20366 5.67578 4.36187 5.70541C4.51504 5.73783 4.68108 5.75236 4.85549 5.74565C5.09028 5.73615 5.33513 5.68863 5.58278 5.5936C5.56154 5.53099 5.51961 5.45049 5.46483 5.35992C5.4106 5.26824 5.33401 5.17098 5.2345 5.07985C5.13835 4.9865 5.01593 4.90208 4.86947 4.83836C4.72636 4.77239 4.55418 4.73102 4.36075 4.72264C3.9236 4.70307 3.53227 4.8719 3.26953 5.01333Z" fill="#C6C6C6"/>
<path d="M5.9524 5.2688C6.14639 5.15867 6.3141 5.0178 6.44826 4.84562C6.73728 4.48001 6.81778 4.02441 6.78759 3.61017C6.77361 3.40333 6.72722 3.21103 6.68026 3.04109C6.62771 2.87506 6.56845 2.73586 6.52205 2.63579C6.42255 2.68611 6.22745 2.8063 6.04968 3.0137C5.86855 3.22165 5.71426 3.50732 5.65277 3.88578C5.5991 4.23349 5.64717 4.52865 5.72097 4.76624C5.79755 5.00215 5.89706 5.18159 5.9524 5.2688Z" fill="#C6C6C6"/>
<path d="M2.50586 4.05234C2.71382 4.25359 2.96035 4.38105 3.23707 4.44757C3.51323 4.51298 3.82851 4.51242 4.15163 4.43248C4.36853 4.37769 4.5899 4.28378 4.80456 4.14234C4.76879 4.08924 4.71624 4.01936 4.64637 3.94445C4.57481 3.87178 4.48145 3.79631 4.37244 3.72811C4.14995 3.59562 3.84584 3.50506 3.47801 3.56599C3.0593 3.63531 2.72612 3.86675 2.50586 4.05234Z" fill="#C6C6C6"/>
<path d="M5.06202 3.69122C5.22134 3.54532 5.35047 3.37761 5.43879 3.19034C5.63277 2.78616 5.61601 2.34118 5.50197 1.95993C5.39016 1.57811 5.185 1.26674 5.05643 1.09903C4.97146 1.16779 4.81213 1.32152 4.68803 1.55128C4.56392 1.78048 4.46833 2.09018 4.49461 2.45131C4.50243 2.62237 4.53429 2.77386 4.58013 2.90691C4.62318 3.04276 4.6774 3.16295 4.7389 3.26525C4.85517 3.47377 4.99214 3.61855 5.06202 3.69122Z" fill="#C6C6C6"/>
<path d="M1.54785 3.25466C1.66581 3.33349 1.79494 3.38324 1.92184 3.42572C1.98613 3.44529 2.05209 3.45927 2.1203 3.46877C2.18682 3.47995 2.25391 3.48722 2.32323 3.4889C2.39254 3.49057 2.46297 3.48722 2.53509 3.47939C2.60497 3.47324 2.67597 3.46262 2.74808 3.44641C2.89175 3.4151 3.04045 3.362 3.18468 3.291C3.37698 3.19764 3.56481 3.0646 3.73867 2.88962C3.65314 2.79962 3.48152 2.66993 3.24841 2.58607C3.12822 2.54806 2.99349 2.52178 2.84758 2.51899C2.69888 2.52123 2.53844 2.54806 2.37241 2.61011C1.99116 2.75881 1.72115 3.03608 1.54785 3.25466Z" fill="#C6C6C6"/>
<path d="M3.94936 2.43677C4.07123 2.26906 4.15788 2.08905 4.2054 1.89395C4.3105 1.4758 4.20987 1.06269 4.03322 0.726152C3.85768 0.387942 3.60837 0.136379 3.45799 -2.28882e-05C3.42668 0.0357547 3.38476 0.0938966 3.34059 0.168247C3.19078 0.415336 3.03648 0.861437 3.17791 1.37854C3.2176 1.53786 3.27575 1.67426 3.34395 1.79109C3.40991 1.91073 3.48426 2.01358 3.56141 2.098C3.7129 2.27017 3.86551 2.38478 3.94936 2.43677Z" fill="#C6C6C6"/>
</svg>
