<svg width="11" height="11" viewBox="0 0 11 11" fill="none" xmlns="http://www.w3.org/2000/svg">
<path d="M11 5.5C11 4.28595 10.2891 3.47484 9.08079 3.47484H7.39142C7.44295 2.94279 7.46842 2.46053 7.46842 2.02632C7.46842 0.889842 6.42053 0 5.36105 0C4.54242 0 4.31316 0.468947 4.17479 1.55332C4.17247 1.573 4.12037 1.99447 4.10242 2.12937C4.07058 2.365 4.03758 2.57516 3.99705 2.78532C3.839 3.60395 3.42447 4.48974 2.99721 5.00905C2.91692 4.93731 2.82828 4.8755 2.73321 4.82495C2.49758 4.69874 2.222 4.63158 1.82542 4.63158H1.64826C1.25168 4.63158 0.976684 4.69874 0.740474 4.82495C0.50738 4.94834 0.316764 5.13896 0.193368 5.37205C0.067158 5.60768 0 5.88326 0 6.27984V9.35174C0 9.74832 0.067158 10.0233 0.193368 10.2595C0.319579 10.4952 0.504842 10.6804 0.740474 10.8066C0.976105 10.9328 1.25168 11 1.64826 11H1.82542C2.222 11 2.497 10.9328 2.73321 10.8066C2.86926 10.7337 2.98853 10.6411 3.08926 10.5305C3.49279 10.8344 4.06189 11 4.81742 11H7.39489C8.25521 11 8.87989 10.6798 9.27821 10.1391C9.44263 9.91679 9.51384 9.76163 9.62384 9.46405C9.64796 9.4178 9.67966 9.37592 9.71763 9.34016C9.73268 9.32395 9.78132 9.27532 9.83805 9.21858C9.91621 9.141 10.0094 9.04779 10.0517 9.00263C10.2387 8.80232 10.3852 8.60316 10.5044 8.36405C10.7111 7.95126 10.7395 7.63574 10.6995 7.106C10.6845 6.90337 10.6839 6.83737 10.6949 6.79221C10.7146 6.70826 10.7383 6.63879 10.78 6.53342L10.8182 6.43732C10.9456 6.11774 11 5.87516 11 5.5ZM5.24989 2.28395C5.26958 2.13863 5.32458 1.69458 5.32342 1.69979C5.35932 1.42016 5.38942 1.25516 5.42068 1.16021C5.86068 1.19437 6.31053 1.59442 6.31053 2.02632C6.31053 2.57921 6.26421 3.23168 6.17042 3.982C6.16024 4.06344 6.1675 4.14612 6.19171 4.22454C6.21591 4.30297 6.25652 4.37535 6.31083 4.43688C6.36514 4.49842 6.43191 4.54771 6.50672 4.58147C6.58153 4.61524 6.66266 4.63271 6.74474 4.63274H9.08079C9.61342 4.63274 9.8421 4.89384 9.8421 5.5C9.8421 5.71421 9.81895 5.81668 9.74195 6.01005L9.70374 6.10674C9.64793 6.242 9.60264 6.38136 9.56826 6.52358C9.51963 6.72968 9.52021 6.86284 9.5451 7.19284C9.57058 7.52979 9.55784 7.66874 9.46926 7.84647C9.40017 7.98053 9.31138 8.10348 9.20584 8.21121C9.18268 8.23668 9.12016 8.29921 9.05416 8.36521C8.97947 8.43932 8.90074 8.51805 8.86947 8.55163C8.71547 8.71721 8.60837 8.87237 8.53774 9.06226C8.46363 9.262 8.42658 9.34363 8.34668 9.45247C8.16489 9.69853 7.88468 9.8421 7.39489 9.8421H4.81684C3.75563 9.8421 3.47542 9.51326 3.47542 8.68421V6.16579C4.23384 5.52663 4.89847 4.22284 5.13353 3.00474C5.1781 2.77026 5.21516 2.53984 5.24989 2.28395ZM1.28642 5.84563C1.35358 5.81032 1.44737 5.78947 1.64826 5.78947H1.82542C2.02632 5.78947 2.12011 5.81032 2.18726 5.84621C2.21839 5.86166 2.2436 5.88688 2.25905 5.918C2.29495 5.98516 2.31579 6.07837 2.31579 6.27984V9.35174C2.31579 9.55321 2.29495 9.64642 2.25905 9.71358C2.2437 9.74492 2.21848 9.77034 2.18726 9.78595C2.12011 9.82126 2.02632 9.8421 1.82542 9.8421H1.64826C1.44737 9.8421 1.35358 9.82126 1.28642 9.78537C1.2553 9.76991 1.23009 9.7447 1.21463 9.71358C1.17874 9.64642 1.15789 9.55263 1.15789 9.35174V6.27984C1.15789 6.07837 1.17874 5.98516 1.21463 5.918C1.23009 5.88688 1.2553 5.86109 1.28642 5.84563Z" fill="#C6C6C6"/>
</svg>
