<svg width="91" height="34" viewBox="0 0 91 34" fill="none" xmlns="http://www.w3.org/2000/svg">
<path d="M30.5 0L32.4283 3.71936L37 4.20163L33.62 6.98258L34.5172 11L30.5 8.99936L26.4828 11L27.38 6.98258L24 4.20163L28.5717 3.71936L30.5 0Z" fill="#FFBE3F"/>
<path d="M44.5 0L46.4283 3.71936L51 4.20163L47.62 6.98258L48.5172 11L44.5 8.99936L40.4828 11L41.38 6.98258L38 4.20163L42.5717 3.71936L44.5 0Z" fill="#FFBE3F"/>
<path d="M57.5 0L59.4283 3.71936L64 4.20163L60.62 6.98258L61.5172 11L57.5 8.99936L53.4828 11L54.38 6.98258L51 4.20163L55.5717 3.71936L57.5 0Z" fill="#FFBE3F"/>
<path d="M71.5 0L73.4283 3.71936L78 4.20163L74.62 6.98258L75.5172 11L71.5 8.99936L67.4828 11L68.38 6.98258L65 4.20163L69.5717 3.71936L71.5 0Z" fill="#FFBE3F"/>
<path d="M84.5 0L86.4283 3.71936L91 4.20163L87.62 6.98258L88.5172 11L84.5 8.99936L80.4828 11L81.38 6.98258L78 4.20163L82.5717 3.71936L84.5 0Z" fill="#FFBE3F"/>
<path d="M75.9819 34V27.2932H76.9112C77.1913 27.1531 77.4149 26.8838 77.5819 26.4851C77.7489 26.0811 77.8808 25.6097 77.9778 25.071C78.0802 24.527 78.1556 23.9613 78.2041 23.3741C78.2579 22.7816 78.3064 22.224 78.3495 21.7015L78.6404 17.9279H88.6925V27.2932H90.6319V34H86.8825V30.3395H79.8282V34H75.9819ZM80.7575 27.2932H85.0078V20.8692H81.9373L81.8726 21.7015C81.7972 23.0375 81.6787 24.1579 81.5171 25.063C81.3555 25.968 81.1023 26.7114 80.7575 27.2932Z" fill="#353535"/>
<path d="M64.0044 26.7033H67.7699C67.7807 27.0696 67.9396 27.3605 68.2467 27.576C68.5591 27.7915 68.9604 27.8992 69.4506 27.8992C69.9462 27.8992 70.3557 27.7807 70.6789 27.5437C71.0075 27.3012 71.1718 26.9672 71.1718 26.5417C71.1718 26.2831 71.1045 26.0568 70.9698 25.8629C70.8405 25.6636 70.6573 25.5074 70.4203 25.3942C70.1887 25.2811 69.9193 25.2246 69.6123 25.2246H67.9477V22.7923H69.6123C70.0701 22.7923 70.4311 22.6846 70.695 22.4691C70.959 22.2536 71.091 21.9816 71.091 21.653C71.091 21.2813 70.9563 20.9796 70.687 20.748C70.423 20.5163 70.0701 20.4005 69.6284 20.4005C69.1921 20.4005 68.8311 20.5002 68.5456 20.6995C68.2601 20.8988 68.1147 21.1574 68.1093 21.4752H64.3438C64.3492 20.7049 64.5781 20.045 65.0306 19.4955C65.4885 18.9406 66.1026 18.5151 66.873 18.2188C67.6487 17.9171 68.5106 17.7663 69.4587 17.7663C70.52 17.7663 71.4331 17.9063 72.198 18.1865C72.9683 18.4612 73.5582 18.8598 73.9676 19.3824C74.377 19.8995 74.5818 20.5298 74.5818 21.2732C74.5818 21.9196 74.3582 22.4664 73.9111 22.9135C73.4693 23.3607 72.831 23.6785 71.996 23.867V23.9963C72.5185 24.0233 72.998 24.1552 73.4343 24.3923C73.8707 24.6239 74.2235 24.9525 74.4929 25.3781C74.7622 25.7983 74.8969 26.3073 74.8969 26.9053C74.8969 27.6756 74.6626 28.3355 74.1939 28.885C73.7252 29.4291 73.0815 29.8466 72.2627 30.1375C71.4492 30.4284 70.5146 30.5738 69.4587 30.5738C68.4298 30.5738 67.5086 30.4311 66.6952 30.1456C65.8871 29.8547 65.2434 29.421 64.764 28.8446C64.2845 28.2682 64.0313 27.5544 64.0044 26.7033Z" fill="#353535"/>
<path d="M56.6858 30.5739C55.3875 30.5739 54.267 30.318 53.3243 29.8062C52.3869 29.2891 51.6651 28.5537 51.1587 27.6002C50.6577 26.6414 50.4072 25.502 50.4072 24.1822C50.4072 22.9001 50.6604 21.7796 51.1668 20.8207C51.6732 19.8564 52.3869 19.1076 53.3081 18.5743C54.2293 18.0356 55.3148 17.7663 56.5646 17.7663C57.448 17.7663 58.2561 17.9037 58.9887 18.1784C59.7213 18.4531 60.3543 18.8598 60.8876 19.3985C61.4209 19.9372 61.8357 20.6025 62.132 21.3944C62.4283 22.1809 62.5764 23.0832 62.5764 24.1014V25.0872H51.789V22.7924H58.8998C58.8944 22.3722 58.7948 21.9978 58.6008 21.6692C58.4069 21.3406 58.1403 21.0847 57.8009 20.9015C57.4669 20.713 57.0817 20.6187 56.6454 20.6187C56.2036 20.6187 55.8077 20.7184 55.4575 20.9177C55.1074 21.1116 54.8299 21.3783 54.6252 21.7176C54.4205 22.0516 54.3128 22.4314 54.302 22.857V25.1923C54.302 25.6986 54.4017 26.1431 54.601 26.5255C54.8003 26.9026 55.0831 27.1962 55.4495 27.4063C55.8158 27.6164 56.2521 27.7214 56.7585 27.7214C57.1086 27.7214 57.4265 27.673 57.712 27.576C57.9975 27.479 58.2426 27.3363 58.4473 27.1477C58.652 26.9592 58.8055 26.7275 58.9079 26.4528L62.536 26.5579C62.3852 27.3713 62.0539 28.0797 61.5421 28.683C61.0358 29.281 60.3705 29.747 59.5463 30.081C58.722 30.4096 57.7686 30.5739 56.6858 30.5739ZM53.9869 16.3522C53.4805 16.3522 53.0469 16.1798 52.6859 15.8351C52.3304 15.4903 52.1526 15.0755 52.1526 14.5907C52.1526 14.1058 52.3304 13.6937 52.6859 13.3543C53.0469 13.0096 53.4805 12.8372 53.9869 12.8372C54.4879 12.8372 54.9134 13.0096 55.2636 13.3543C55.6191 13.6937 55.7969 14.1058 55.7969 14.5907C55.7969 15.0755 55.6191 15.4903 55.2636 15.8351C54.9134 16.1798 54.4879 16.3522 53.9869 16.3522ZM59.0291 16.3522C58.5227 16.3522 58.0891 16.1798 57.7281 15.8351C57.3726 15.4903 57.1948 15.0755 57.1948 14.5907C57.1948 14.1058 57.3726 13.6937 57.7281 13.3543C58.0891 13.0096 58.5227 12.8372 59.0291 12.8372C59.5301 12.8372 59.9557 13.0096 60.3058 13.3543C60.6614 13.6937 60.8391 14.1058 60.8391 14.5907C60.8391 15.0755 60.6614 15.4903 60.3058 15.8351C59.9557 16.1798 59.5301 16.3522 59.0291 16.3522Z" fill="#353535"/>
<path d="M37.6401 30.3395V17.9279H42.9975C44.5974 17.9279 45.858 18.2161 46.7792 18.7925C47.7057 19.3635 48.169 20.2012 48.169 21.3055C48.169 21.9466 47.9077 22.4988 47.3852 22.962C46.8681 23.4199 46.1327 23.7297 45.1792 23.8913C46.0196 23.9344 46.7172 24.1014 47.2721 24.3923C47.8269 24.6832 48.2417 25.0522 48.5165 25.4993C48.7912 25.9464 48.9286 26.4232 48.9286 26.9296C48.9286 27.6622 48.732 28.2817 48.3387 28.7881C47.9455 29.2944 47.369 29.6796 46.6095 29.9436C45.8553 30.2075 44.9287 30.3395 43.8298 30.3395H37.6401ZM41.3168 27.479H43.8298C44.25 27.479 44.5786 27.3794 44.8156 27.18C45.058 26.9807 45.1792 26.706 45.1792 26.3558C45.1792 25.9787 45.058 25.6825 44.8156 25.467C44.5786 25.2515 44.25 25.1438 43.8298 25.1438H41.3168V27.479ZM41.3168 23.0024H43.1025C43.3881 23.0024 43.6332 22.9593 43.8379 22.8731C44.0426 22.787 44.1988 22.6631 44.3065 22.5014C44.4197 22.3398 44.4762 22.1459 44.4762 21.9196C44.4762 21.591 44.3442 21.3325 44.0803 21.1439C43.8217 20.9554 43.4608 20.8611 42.9975 20.8611H41.3168V23.0024Z" fill="#353535"/>
<path d="M24.8062 26.7033H28.5717C28.5824 27.0696 28.7414 27.3605 29.0484 27.576C29.3609 27.7915 29.7622 27.8992 30.2524 27.8992C30.748 27.8992 31.1574 27.7807 31.4806 27.5437C31.8092 27.3012 31.9735 26.9672 31.9735 26.5417C31.9735 26.2831 31.9062 26.0568 31.7715 25.8629C31.6422 25.6636 31.4591 25.5074 31.2221 25.3942C30.9904 25.2811 30.7211 25.2246 30.414 25.2246H28.7494V22.7923H30.414C30.8719 22.7923 31.2328 22.6846 31.4968 22.4691C31.7608 22.2536 31.8927 21.9816 31.8927 21.653C31.8927 21.2813 31.7581 20.9796 31.4887 20.748C31.2248 20.5163 30.8719 20.4005 30.4302 20.4005C29.9938 20.4005 29.6329 20.5002 29.3474 20.6995C29.0619 20.8988 28.9164 21.1574 28.911 21.4752H25.1455C25.1509 20.7049 25.3799 20.045 25.8324 19.4955C26.2903 18.9406 26.9044 18.5151 27.6747 18.2188C28.4505 17.9171 29.3124 17.7663 30.2605 17.7663C31.3217 17.7663 32.2348 17.9063 32.9998 18.1865C33.7701 18.4612 34.36 18.8598 34.7694 19.3824C35.1788 19.8995 35.3835 20.5298 35.3835 21.2732C35.3835 21.9196 35.16 22.4664 34.7128 22.9135C34.2711 23.3607 33.6327 23.6785 32.7978 23.867V23.9963C33.3203 24.0233 33.7997 24.1552 34.2361 24.3923C34.6724 24.6239 35.0253 24.9525 35.2946 25.3781C35.564 25.7983 35.6987 26.3073 35.6987 26.9053C35.6987 27.6756 35.4643 28.3355 34.9956 28.885C34.527 29.4291 33.8832 29.8466 33.0644 30.1375C32.251 30.4284 31.3163 30.5738 30.2605 30.5738C29.2316 30.5738 28.3104 30.4311 27.497 30.1456C26.6889 29.8547 26.0452 29.421 25.5657 28.8446C25.0863 28.2682 24.8331 27.5544 24.8062 26.7033Z" fill="#353535"/>
<path d="M11.4156 31C9.20368 31 7.24017 30.6135 5.52502 29.8406C3.81925 29.0583 2.47431 27.9827 1.49021 26.6137C0.515481 25.2447 0.0187448 23.6708 0 21.8921H7.59163C7.61975 22.8793 8.00402 23.6662 8.74444 24.2529C9.49423 24.8396 10.3846 25.1329 11.4156 25.1329C12.2122 25.1329 12.9151 24.9653 13.5244 24.6301C14.1336 24.2855 14.6115 23.8012 14.9583 23.1773C15.3051 22.5533 15.4738 21.8269 15.4644 20.9981C15.4738 20.1599 15.3051 19.4335 14.9583 18.8189C14.6115 18.1949 14.1336 17.7153 13.5244 17.3801C12.9151 17.0355 12.2122 16.8632 11.4156 16.8632C10.5908 16.8632 9.82695 17.0634 9.12402 17.4639C8.43046 17.855 7.91967 18.3998 7.59163 19.0983L0.731046 17.7572L1.85573 2H21.2003V8.20231H8.26644L7.7041 14.5164H7.8728C8.32268 13.6503 9.10059 12.9332 10.2065 12.3651C11.3125 11.7877 12.5965 11.499 14.0586 11.499C15.7737 11.499 17.3014 11.8948 18.6417 12.6864C19.9913 13.478 21.0551 14.5723 21.833 15.9692C22.6203 17.3568 23.0092 18.9586 22.9998 20.7746C23.0092 22.7675 22.5312 24.5369 21.5659 26.0829C20.6099 27.6195 19.2649 28.8255 17.531 29.7009C15.7972 30.567 13.7587 31 11.4156 31Z" fill="#353535"/>
</svg>
