<svg width="36" height="36" viewBox="0 0 36 36" fill="none" xmlns="http://www.w3.org/2000/svg">
<path d="M27.0682 12.9477C26.0046 19.2018 22.6458 24.8327 17.6496 28.738L16.8525 29.3842C15.9697 30.0995 14.8628 30.48 13.7268 30.4587C12.5908 30.4373 11.4987 30.0156 10.6429 29.2676L8.98678 27.821C8.72746 27.5941 8.56246 27.2782 8.52429 26.9356C8.48611 26.5931 8.57752 26.2487 8.78052 25.9703L11.923 21.6588C12.0325 21.5087 12.1712 21.3823 12.3307 21.2872C12.4902 21.1921 12.6673 21.1303 12.8513 21.1054C13.0353 21.0805 13.2225 21.093 13.4016 21.1423C13.5807 21.1916 13.748 21.2765 13.8934 21.3921L15.5829 22.7341C18.3461 20.3067 20.2328 17.0359 20.9513 13.4273L18.9465 12.6339C18.7737 12.5656 18.6166 12.4631 18.4844 12.3325C18.3522 12.202 18.2477 12.046 18.1773 11.8741C18.1068 11.7022 18.0718 11.5178 18.0743 11.332C18.0769 11.1462 18.1169 10.9628 18.1921 10.7929L20.352 5.91377C20.4915 5.59865 20.7438 5.34722 21.0594 5.20903C21.3749 5.07083 21.7308 5.05589 22.0569 5.16713L24.1506 5.88253C25.2322 6.25203 26.1476 6.99364 26.7339 7.97525C27.3201 8.95687 27.5391 10.1147 27.3519 11.2426L27.0682 12.9477Z" fill="url(#paint0_linear_253_1284)"/>
<rect x="1.5" y="1.5" width="32.2174" height="33" rx="5.5" stroke="url(#paint1_linear_253_1284)" stroke-width="3"/>
<defs>
<linearGradient id="paint0_linear_253_1284" x1="29.4624" y1="-9.79509" x2="-1.3426" y2="-0.0254611" gradientUnits="userSpaceOnUse">
<stop stop-color="#FA8116"/>
<stop offset="1" stop-color="#FFCA2B"/>
</linearGradient>
<linearGradient id="paint1_linear_253_1284" x1="-10.9416" y1="-19.514" x2="39.1585" y2="-17.2918" gradientUnits="userSpaceOnUse">
<stop stop-color="#FA8116"/>
<stop offset="1" stop-color="#FFCA2B"/>
</linearGradient>
</defs>
</svg>
