<svg width="36" height="36" viewBox="0 0 36 36" fill="none" xmlns="http://www.w3.org/2000/svg">
<path d="M17.3345 28.3495L17.3345 28.3495L17.3415 28.344C22.2393 24.5157 25.532 18.9957 26.5749 12.8647C26.5749 12.8644 26.575 12.8641 26.575 12.8638L26.8584 11.1607C26.8584 11.1606 26.8584 11.1606 26.8584 11.1605C27.0262 10.1495 26.8299 9.11156 26.3044 8.23162C25.7788 7.35163 24.9582 6.68686 23.9887 6.35566L23.9887 6.35566L21.8952 5.64034C21.8952 5.64033 21.8952 5.64033 21.8951 5.64032C21.8951 5.6403 21.895 5.64028 21.895 5.64026C21.6873 5.56946 21.4606 5.57902 21.2597 5.66702C21.0587 5.75504 20.8979 5.91522 20.809 6.11608L20.809 6.11616L18.6491 10.9951C18.6491 10.9952 18.6491 10.9952 18.649 10.9953C18.6012 11.1035 18.5757 11.2204 18.5741 11.3388L18.0741 11.3319L18.5741 11.3388C18.5724 11.4573 18.5947 11.5748 18.6397 11.6845C18.6846 11.7941 18.7512 11.8936 18.8355 11.9768C18.9198 12.06 19.0199 12.1253 19.13 12.1689L19.1303 12.1689L21.135 12.9624L21.5228 13.1159L21.4414 13.525C20.7015 17.2412 18.7585 20.6098 15.9126 23.1097L15.5988 23.3854L15.2716 23.1256L13.5822 21.7836L13.5822 21.7836C13.4894 21.7099 13.3828 21.6558 13.2687 21.6244C13.1546 21.593 13.0354 21.585 12.9181 21.6008C12.8009 21.6167 12.6881 21.6561 12.5865 21.7167C12.4849 21.7773 12.3965 21.8578 12.3268 21.9534L9.18434 26.2648L9.18429 26.2648C9.05492 26.4423 8.99662 26.6618 9.02097 26.8802C9.04531 27.0987 9.15053 27.3001 9.31584 27.4448L10.9716 28.891L10.9717 28.8911C11.7388 29.5616 12.7178 29.9396 13.7359 29.9587C14.7541 29.9778 15.7461 29.6368 16.5374 28.9957C16.5374 28.9957 16.5375 28.9957 16.5375 28.9957L17.3345 28.3495Z" fill="white" stroke="white"/>
<rect x="0.5" y="0.5" width="34.2174" height="35" rx="6.5" stroke="white"/>
</svg>
