<svg width="58" height="29" viewBox="0 0 58 29" fill="none" xmlns="http://www.w3.org/2000/svg">
<path d="M46.7071 15.7071C47.0976 15.3166 47.0976 14.6834 46.7071 14.2929L40.3431 7.92893C39.9526 7.53841 39.3195 7.53841 38.9289 7.92893C38.5384 8.31946 38.5384 8.95262 38.9289 9.34315L44.5858 15L38.9289 20.6569C38.5384 21.0474 38.5384 21.6805 38.9289 22.0711C39.3195 22.4616 39.9526 22.4616 40.3431 22.0711L46.7071 15.7071ZM12 16L46 16L46 14L12 14L12 16Z" fill="url(#paint0_linear_222_32320)"/>
<rect x="1" y="1" width="56" height="27" rx="9" stroke="url(#paint1_linear_222_32320)" stroke-width="2"/>
<defs>
<linearGradient id="paint0_linear_222_32320" x1="1.4366" y1="14.4579" x2="15.7892" y2="36.5844" gradientUnits="userSpaceOnUse">
<stop stop-color="#FA8116"/>
<stop offset="1" stop-color="#FFCA2B"/>
</linearGradient>
<linearGradient id="paint1_linear_222_32320" x1="-18.0199" y1="-15.7196" x2="63.9787" y2="-8.28368" gradientUnits="userSpaceOnUse">
<stop stop-color="#FA8116"/>
<stop offset="1" stop-color="#FFCA2B"/>
</linearGradient>
</defs>
</svg>
