<svg width="76" height="71" viewBox="0 0 76 71" fill="none" xmlns="http://www.w3.org/2000/svg">
<path d="M35.2758 1.90599C36.3481 -0.418623 39.6519 -0.418621 40.7242 1.90599L49.4285 20.777C49.8655 21.7244 50.7634 22.3768 51.7995 22.4996L72.4367 24.9465C74.9789 25.2479 75.9998 28.3901 74.1203 30.1282L58.8627 44.238C58.0967 44.9463 57.7537 46.0018 57.9571 47.0252L62.0072 67.4085C62.5061 69.9194 59.8332 71.8613 57.5994 70.6109L39.4653 60.4602C38.5549 59.9506 37.4451 59.9506 36.5347 60.4602L18.4006 70.6109C16.1668 71.8613 13.4939 69.9194 13.9928 67.4085L18.0429 47.0252C18.2463 46.0018 17.9033 44.9463 17.1373 44.238L1.87969 30.1282C0.000186443 28.3901 1.02114 25.2479 3.56332 24.9465L24.2005 22.4996C25.2366 22.3768 26.1345 21.7244 26.5715 20.777L35.2758 1.90599Z" fill="#FFBE3F"/>
</svg>
