<svg width="17" height="16" viewBox="0 0 17 16" fill="none" xmlns="http://www.w3.org/2000/svg">
<path d="M8.44578 0.984333C8.62449 0.596897 9.17513 0.596897 9.35384 0.984333L11.35 5.31207C11.4229 5.46998 11.5725 5.5787 11.7452 5.59917L16.478 6.16032C16.9017 6.21056 17.0718 6.73425 16.7586 7.02393L13.2595 10.2598C13.1318 10.3778 13.0747 10.5538 13.1086 10.7243L14.0374 15.3989C14.1206 15.8173 13.6751 16.141 13.3028 15.9326L9.14403 13.6047C8.9923 13.5198 8.80733 13.5198 8.65559 13.6047L4.49686 15.9326C4.12455 16.141 3.67907 15.8173 3.76222 15.3989L4.69105 10.7243C4.72494 10.5538 4.66778 10.3778 4.54011 10.2598L1.04104 7.02393C0.727794 6.73425 0.897952 6.21056 1.32165 6.16032L6.05443 5.59917C6.22711 5.5787 6.37676 5.46998 6.44959 5.31207L8.44578 0.984333Z" fill="#D5D5D5"/>
</svg>
