<svg width="33" height="33" viewBox="0 0 33 33" fill="none" xmlns="http://www.w3.org/2000/svg">
<path d="M28.1497 0H5.51448C2.83567 0 0.664062 2.1716 0.664062 4.85041V27.4857C0.664062 30.1645 2.83567 32.3361 5.51448 32.3361H28.1497C30.8285 32.3361 33.0001 30.1645 33.0001 27.4857V4.85041C33.0001 2.1716 30.8285 0 28.1497 0Z" fill="#37AEE2"/>
<path d="M13.2327 25.5152C12.5379 25.5152 12.6011 25.2625 12.4116 24.631L10.3906 17.9996L25.8639 8.90503" fill="#C8DAEA"/>
<path d="M13.2324 25.5153C13.6745 25.5153 13.9271 25.2626 14.2429 25.01L17.085 22.2943L13.5482 20.147" fill="#A9C9DD"/>
<path d="M13.5483 20.1468L22.0745 26.3993C22.9586 26.9677 23.7165 26.6519 23.9692 25.5151L27.4428 9.22077C27.7585 7.83133 26.8743 7.19976 25.927 7.64186L5.65379 15.4733C4.3275 15.9785 4.3275 16.7995 5.40116 17.1153L10.6431 18.7574L22.6429 11.1155C23.2113 10.7997 23.7165 10.926 23.3376 11.3681" fill="#F6FBFE"/>
</svg>
