<svg width="33" height="33" viewBox="0 0 33 33" fill="none" xmlns="http://www.w3.org/2000/svg">
<path d="M27.4857 0H4.85041C2.1716 0 0 2.1716 0 4.85041V27.4857C0 30.1645 2.1716 32.3361 4.85041 32.3361H27.4857C30.1645 32.3361 32.3361 30.1645 32.3361 27.4857V4.85041C32.3361 2.1716 30.1645 0 27.4857 0Z" fill="#45D354"/>
<path d="M19.4526 17.2416C19.2631 17.1153 19.0737 17.0521 18.8842 17.3048L18.1263 18.3153C17.9368 18.4416 17.8105 18.5047 17.5579 18.3784C16.6105 17.8732 15.2843 17.3048 14.1474 15.4101C14.0843 15.1574 14.2106 15.0311 14.3369 14.9048L14.9053 14.0206C15.0316 13.8943 14.9685 13.768 14.9053 13.6417L14.1474 11.8101C13.958 11.3049 13.7685 11.3681 13.579 11.3681H13.0738C12.9475 11.3681 12.6949 11.4312 12.4422 11.6838C11.0528 13.0733 11.6212 15.0311 12.6317 16.2943C12.8212 16.5469 14.0843 18.8205 16.8 20.0205C18.821 20.9047 19.2631 20.7784 19.8315 20.652C20.5262 20.5889 21.221 20.0205 21.5368 19.4521C21.5999 19.2626 21.9157 18.4416 21.6631 18.3153M16.6737 24.252C14.0843 24.252 12.1264 22.8625 12.1264 22.8625L9.03178 23.6836L9.78966 20.652C9.78966 20.652 8.52653 18.6942 8.52653 16.2311C8.52653 11.6838 12.2528 7.89445 16.8632 7.89445C21.1578 7.89445 24.8209 11.2417 24.8209 15.9153C24.8209 20.4626 21.1578 24.1888 16.6737 24.252ZM6.63184 26.0835L11.8738 24.6309C13.392 25.4081 15.084 25.7833 16.7884 25.7205C18.4928 25.6577 20.1527 25.1591 21.6096 24.2723C23.0664 23.3855 24.2717 22.1401 25.1103 20.655C25.9489 19.1698 26.3929 17.4945 26.3998 15.789C26.3998 10.3575 22.1052 5.99976 16.6737 5.99976C14.9304 6.00422 13.2187 6.4653 11.709 7.3371C10.1994 8.20889 8.94446 9.46098 8.06924 10.9687C7.19402 12.4763 6.72905 14.187 6.72064 15.9303C6.71222 17.6735 7.16065 19.3886 8.02128 20.9047" fill="white"/>
</svg>
