<svg width="233" height="381" viewBox="0 0 233 381" fill="none" xmlns="http://www.w3.org/2000/svg">
<g filter="url(#filter0_d_222_32144)">
<path fill-rule="evenodd" clip-rule="evenodd" d="M16 112C16 56.7716 61.0871 12 116.316 12C171.544 12 216.631 56.7715 216.631 112V281.32H216.126C215.93 282.277 215.548 283.227 214.957 284.127L167.339 356.649C164.179 361.461 157.124 361.461 153.964 356.649L116.676 299.86L79.1023 356.73C75.9397 361.517 68.9153 361.517 65.7527 356.73L17.7968 284.146C17.1987 283.241 16.8129 282.284 16.6159 281.32H16V112Z" fill="white"/>
</g>
<path d="M50.0174 200.654L55.1424 209.176H55.3242L60.472 200.654H65.2788L58.1083 212.29L65.3924 223.926H60.506L55.3242 215.46H55.1424L49.9606 223.926H45.097L52.4492 212.29L45.1879 200.654H50.0174ZM75.114 224.267C73.4095 224.267 71.9322 223.892 70.6822 223.142C69.4322 222.392 68.4625 221.343 67.7731 219.994C67.0913 218.646 66.7504 217.07 66.7504 215.267C66.7504 213.464 67.0913 211.885 67.7731 210.529C68.4625 209.172 69.4322 208.119 70.6822 207.369C71.9322 206.619 73.4095 206.244 75.114 206.244C76.8185 206.244 78.2958 206.619 79.5458 207.369C80.7958 208.119 81.7617 209.172 82.4435 210.529C83.1329 211.885 83.4776 213.464 83.4776 215.267C83.4776 217.07 83.1329 218.646 82.4435 219.994C81.7617 221.343 80.7958 222.392 79.5458 223.142C78.2958 223.892 76.8185 224.267 75.114 224.267ZM75.1367 220.972C76.061 220.972 76.8337 220.718 77.4549 220.21C78.0761 219.695 78.5382 219.006 78.8413 218.142C79.1519 217.279 79.3072 216.316 79.3072 215.256C79.3072 214.188 79.1519 213.222 78.8413 212.358C78.5382 211.487 78.0761 210.794 77.4549 210.279C76.8337 209.763 76.061 209.506 75.1367 209.506C74.1898 209.506 73.4019 209.763 72.7731 210.279C72.1519 210.794 71.686 211.487 71.3754 212.358C71.0723 213.222 70.9208 214.188 70.9208 215.256C70.9208 216.316 71.0723 217.279 71.3754 218.142C71.686 219.006 72.1519 219.695 72.7731 220.21C73.4019 220.718 74.1898 220.972 75.1367 220.972ZM86.9691 230.472V206.472H91.0146V209.358H91.2532C91.4653 208.934 91.7646 208.483 92.1509 208.006C92.5373 207.521 93.06 207.108 93.7191 206.767C94.3782 206.419 95.2191 206.244 96.2418 206.244C97.5903 206.244 98.8062 206.589 99.8896 207.279C100.98 207.96 101.844 208.972 102.48 210.313C103.124 211.646 103.446 213.282 103.446 215.222C103.446 217.138 103.132 218.767 102.503 220.108C101.874 221.449 101.018 222.472 99.935 223.176C98.8517 223.881 97.6244 224.233 96.2532 224.233C95.2532 224.233 94.4237 224.066 93.7646 223.733C93.1055 223.4 92.5752 222.998 92.1737 222.529C91.7797 222.051 91.4729 221.601 91.2532 221.176H91.0827V230.472H86.9691ZM91.0032 215.199C91.0032 216.328 91.1623 217.316 91.4805 218.165C91.8062 219.013 92.2721 219.676 92.8782 220.154C93.4918 220.623 94.2343 220.858 95.1055 220.858C96.0146 220.858 96.7759 220.616 97.3896 220.131C98.0032 219.638 98.4653 218.968 98.7759 218.119C99.0941 217.263 99.2532 216.29 99.2532 215.199C99.2532 214.116 99.0979 213.154 98.7873 212.313C98.4767 211.472 98.0146 210.813 97.4009 210.335C96.7873 209.858 96.0221 209.619 95.1055 209.619C94.2267 209.619 93.4805 209.851 92.8668 210.313C92.2532 210.775 91.7873 211.422 91.4691 212.256C91.1585 213.089 91.0032 214.07 91.0032 215.199ZM114.583 224.267C112.878 224.267 111.401 223.892 110.151 223.142C108.901 222.392 107.931 221.343 107.242 219.994C106.56 218.646 106.219 217.07 106.219 215.267C106.219 213.464 106.56 211.885 107.242 210.529C107.931 209.172 108.901 208.119 110.151 207.369C111.401 206.619 112.878 206.244 114.583 206.244C116.287 206.244 117.765 206.619 119.015 207.369C120.265 208.119 121.23 209.172 121.912 210.529C122.602 211.885 122.946 213.464 122.946 215.267C122.946 217.07 122.602 218.646 121.912 219.994C121.23 221.343 120.265 222.392 119.015 223.142C117.765 223.892 116.287 224.267 114.583 224.267ZM114.605 220.972C115.53 220.972 116.302 220.718 116.924 220.21C117.545 219.695 118.007 219.006 118.31 218.142C118.621 217.279 118.776 216.316 118.776 215.256C118.776 214.188 118.621 213.222 118.31 212.358C118.007 211.487 117.545 210.794 116.924 210.279C116.302 209.763 115.53 209.506 114.605 209.506C113.659 209.506 112.871 209.763 112.242 210.279C111.621 210.794 111.155 211.487 110.844 212.358C110.541 213.222 110.39 214.188 110.39 215.256C110.39 216.316 110.541 217.279 110.844 218.142C111.155 219.006 111.621 219.695 112.242 220.21C112.871 220.718 113.659 220.972 114.605 220.972ZM126.438 206.472H130.404V220.54H135.892V206.472H139.858V220.54H145.347V206.472H149.313V223.926H126.438V206.472ZM161.196 224.267C159.446 224.267 157.935 223.904 156.662 223.176C155.397 222.441 154.424 221.404 153.742 220.063C153.06 218.714 152.719 217.127 152.719 215.301C152.719 213.506 153.06 211.93 153.742 210.574C154.431 209.21 155.393 208.15 156.628 207.392C157.863 206.627 159.314 206.244 160.98 206.244C162.056 206.244 163.071 206.419 164.026 206.767C164.988 207.108 165.837 207.638 166.571 208.358C167.314 209.078 167.897 209.994 168.321 211.108C168.746 212.214 168.958 213.532 168.958 215.063V216.324H154.651V213.551H165.015C165.007 212.763 164.837 212.063 164.503 211.449C164.17 210.828 163.704 210.339 163.105 209.983C162.515 209.627 161.825 209.449 161.037 209.449C160.196 209.449 159.458 209.654 158.821 210.063C158.185 210.464 157.689 210.994 157.333 211.654C156.984 212.305 156.806 213.021 156.799 213.801V216.222C156.799 217.237 156.984 218.108 157.355 218.835C157.727 219.555 158.246 220.108 158.912 220.494C159.579 220.873 160.359 221.063 161.253 221.063C161.852 221.063 162.393 220.979 162.878 220.813C163.363 220.638 163.784 220.385 164.14 220.051C164.496 219.718 164.765 219.305 164.946 218.813L168.787 219.244C168.545 220.26 168.083 221.146 167.401 221.904C166.727 222.654 165.863 223.237 164.81 223.654C163.757 224.063 162.552 224.267 161.196 224.267ZM180.165 224.267C178.415 224.267 176.904 223.904 175.631 223.176C174.366 222.441 173.392 221.404 172.711 220.063C172.029 218.714 171.688 217.127 171.688 215.301C171.688 213.506 172.029 211.93 172.711 210.574C173.4 209.21 174.362 208.15 175.597 207.392C176.832 206.627 178.283 206.244 179.949 206.244C181.025 206.244 182.04 206.419 182.995 206.767C183.957 207.108 184.805 207.638 185.54 208.358C186.283 209.078 186.866 209.994 187.29 211.108C187.714 212.214 187.927 213.532 187.927 215.063V216.324H173.62V213.551H183.983C183.976 212.763 183.805 212.063 183.472 211.449C183.139 210.828 182.673 210.339 182.074 209.983C181.483 209.627 180.794 209.449 180.006 209.449C179.165 209.449 178.426 209.654 177.79 210.063C177.154 210.464 176.658 210.994 176.301 211.654C175.953 212.305 175.775 213.021 175.767 213.801V216.222C175.767 217.237 175.953 218.108 176.324 218.835C176.695 219.555 177.214 220.108 177.881 220.494C178.548 220.873 179.328 221.063 180.222 221.063C180.82 221.063 181.362 220.979 181.847 220.813C182.332 220.638 182.752 220.385 183.108 220.051C183.464 219.718 183.733 219.305 183.915 218.813L187.756 219.244C187.514 220.26 187.051 221.146 186.37 221.904C185.695 222.654 184.832 223.237 183.779 223.654C182.726 224.063 181.521 224.267 180.165 224.267ZM79.9833 258.142L85.1651 245.472H88.4833L81.4265 262.926H78.5515L71.6538 245.472H74.9379L79.9833 258.142ZM73.9038 245.472V262.926H69.9379V245.472H73.9038ZM86.2333 262.926V245.472H90.1651V262.926H86.2333ZM102.04 263.267C100.29 263.267 98.7788 262.904 97.506 262.176C96.2409 261.441 95.2674 260.404 94.5856 259.063C93.9038 257.714 93.5629 256.127 93.5629 254.301C93.5629 252.506 93.9038 250.93 94.5856 249.574C95.275 248.21 96.2371 247.15 97.472 246.392C98.7068 245.627 100.158 245.244 101.824 245.244C102.9 245.244 103.915 245.419 104.87 245.767C105.832 246.108 106.68 246.638 107.415 247.358C108.158 248.078 108.741 248.994 109.165 250.108C109.589 251.214 109.802 252.532 109.802 254.063V255.324H95.4947V252.551H105.858C105.851 251.763 105.68 251.063 105.347 250.449C105.014 249.828 104.548 249.339 103.949 248.983C103.358 248.627 102.669 248.449 101.881 248.449C101.04 248.449 100.301 248.654 99.6651 249.063C99.0288 249.464 98.5326 249.994 98.1765 250.654C97.828 251.305 97.65 252.021 97.6424 252.801V255.222C97.6424 256.237 97.828 257.108 98.1992 257.835C98.5704 258.555 99.0894 259.108 99.756 259.494C100.423 259.873 101.203 260.063 102.097 260.063C102.695 260.063 103.237 259.979 103.722 259.813C104.207 259.638 104.627 259.385 104.983 259.051C105.339 258.718 105.608 258.305 105.79 257.813L109.631 258.244C109.389 259.26 108.926 260.146 108.245 260.904C107.57 261.654 106.707 262.237 105.654 262.654C104.601 263.063 103.396 263.267 102.04 263.267ZM120.895 263.267C119.153 263.267 117.657 262.885 116.407 262.119C115.164 261.354 114.206 260.297 113.532 258.949C112.865 257.593 112.532 256.032 112.532 254.267C112.532 252.494 112.873 250.93 113.554 249.574C114.236 248.21 115.198 247.15 116.441 246.392C117.691 245.627 119.168 245.244 120.873 245.244C122.289 245.244 123.543 245.506 124.634 246.029C125.732 246.544 126.607 247.275 127.259 248.222C127.91 249.161 128.282 250.26 128.373 251.517H124.441C124.282 250.676 123.903 249.976 123.304 249.415C122.713 248.847 121.922 248.563 120.929 248.563C120.088 248.563 119.35 248.79 118.713 249.244C118.077 249.691 117.581 250.335 117.225 251.176C116.876 252.017 116.702 253.025 116.702 254.199C116.702 255.388 116.876 256.411 117.225 257.267C117.573 258.116 118.062 258.771 118.691 259.233C119.327 259.688 120.073 259.915 120.929 259.915C121.535 259.915 122.077 259.801 122.554 259.574C123.039 259.339 123.444 259.002 123.77 258.563C124.096 258.123 124.319 257.589 124.441 256.96H128.373C128.274 258.195 127.91 259.29 127.282 260.244C126.653 261.191 125.797 261.934 124.713 262.472C123.63 263.002 122.357 263.267 120.895 263.267ZM130.483 248.847V245.472H145.756V248.847H140.108V262.926H136.131V248.847H130.483ZM155.926 263.267C154.222 263.267 152.745 262.892 151.495 262.142C150.245 261.392 149.275 260.343 148.586 258.994C147.904 257.646 147.563 256.07 147.563 254.267C147.563 252.464 147.904 250.885 148.586 249.529C149.275 248.172 150.245 247.119 151.495 246.369C152.745 245.619 154.222 245.244 155.926 245.244C157.631 245.244 159.108 245.619 160.358 246.369C161.608 247.119 162.574 248.172 163.256 249.529C163.945 250.885 164.29 252.464 164.29 254.267C164.29 256.07 163.945 257.646 163.256 258.994C162.574 260.343 161.608 261.392 160.358 262.142C159.108 262.892 157.631 263.267 155.926 263.267ZM155.949 259.972C156.873 259.972 157.646 259.718 158.267 259.21C158.889 258.695 159.351 258.006 159.654 257.142C159.964 256.279 160.12 255.316 160.12 254.256C160.12 253.188 159.964 252.222 159.654 251.358C159.351 250.487 158.889 249.794 158.267 249.279C157.646 248.763 156.873 248.506 155.949 248.506C155.002 248.506 154.214 248.763 153.586 249.279C152.964 249.794 152.498 250.487 152.188 251.358C151.885 252.222 151.733 253.188 151.733 254.256C151.733 255.316 151.885 256.279 152.188 257.142C152.498 258.006 152.964 258.695 153.586 259.21C154.214 259.718 155.002 259.972 155.949 259.972Z" fill="#353535"/>
<path d="M39.3008 103.359C39.3008 60.8162 73.7785 26.3308 116.329 26.3308C158.864 26.3308 193.357 60.8162 193.357 103.359C193.357 145.901 158.864 180.387 116.329 180.387C73.7785 180.387 39.3008 145.901 39.3008 103.359Z" fill="#FC3F1D"/>
<path d="M126.188 69.9753H119.071C106.022 69.9753 99.159 76.5843 99.159 86.3283C99.159 97.3433 103.904 102.504 113.648 109.121L121.697 114.544L98.5659 149.106H81.2808L102.04 118.187C90.1005 109.629 83.399 101.318 83.399 87.2603C83.399 69.6363 95.685 57.6046 118.986 57.6046H142.117V149.021H126.188V69.9753Z" fill="white"/>
<defs>
<filter id="filter0_d_222_32144" x="0" y="0" width="232.631" height="380.321" filterUnits="userSpaceOnUse" color-interpolation-filters="sRGB">
<feFlood flood-opacity="0" result="BackgroundImageFix"/>
<feColorMatrix in="SourceAlpha" type="matrix" values="0 0 0 0 0 0 0 0 0 0 0 0 0 0 0 0 0 0 127 0" result="hardAlpha"/>
<feOffset dy="4"/>
<feGaussianBlur stdDeviation="8"/>
<feComposite in2="hardAlpha" operator="out"/>
<feColorMatrix type="matrix" values="0 0 0 0 0 0 0 0 0 0 0 0 0 0 0 0 0 0 0.14 0"/>
<feBlend mode="normal" in2="BackgroundImageFix" result="effect1_dropShadow_222_32144"/>
<feBlend mode="normal" in="SourceGraphic" in2="effect1_dropShadow_222_32144" result="shape"/>
</filter>
</defs>
</svg>
