<svg width="21" height="22" viewBox="0 0 21 22" fill="none" xmlns="http://www.w3.org/2000/svg">
<path d="M0 11C0 5.20085 4.6998 0.5 10.5 0.5C16.2981 0.5 21 5.20085 21 11C21 16.7991 16.2981 21.5 10.5 21.5C4.6998 21.5 0 16.7991 0 11Z" fill="#FC3F1D"/>
<path d="M11.8442 6.44936H10.874C9.09526 6.44936 8.15971 7.35026 8.15971 8.67851C8.15971 10.18 8.80651 10.8835 10.1348 11.7855L11.232 12.5247L8.07886 17.236H5.72266L8.55241 13.0213C6.92491 11.8548 6.01141 10.7218 6.01141 8.80556C6.01141 6.40316 7.68616 4.76306 10.8624 4.76306H14.0156V17.2245H11.8442V6.44936Z" fill="white"/>
</svg>
