<svg width="39" height="38" viewBox="0 0 39 38" fill="none" xmlns="http://www.w3.org/2000/svg">
<path d="M13.2019 36.1306L12.8773 36.5109L12.8774 36.5109L12.8775 36.511L12.8777 36.5112L12.8786 36.5119L12.8817 36.5146L12.8929 36.5241L12.9332 36.5581C12.967 36.5864 13.0137 36.6253 13.0656 36.6675C13.1616 36.7456 13.2999 36.8558 13.4013 36.9211L13.4015 36.9213C13.8004 37.1781 14.2462 37.3544 14.7135 37.4401C15.1807 37.5259 15.6604 37.5195 16.1251 37.4213L16.0218 36.9321L16.1251 37.4213C16.5899 37.3232 17.0308 37.1351 17.4226 36.8678L17.1408 36.4548L17.4226 36.8678C17.8145 36.6004 18.1496 36.2589 18.4087 35.8626L37.9154 6.05249C38.1746 5.65645 38.3528 5.21343 38.4395 4.74872C38.5262 4.28399 38.5197 3.80687 38.4203 3.34467C38.321 2.88246 38.1308 2.44442 37.8609 2.05551L37.4502 2.34061L37.8609 2.05551C37.591 1.66662 37.2466 1.33454 36.8477 1.07806M36.8477 1.07806C36.8477 1.07809 36.8478 1.07813 36.8478 1.07817L36.5773 1.49864L36.8477 1.07806Z" fill="url(#paint0_linear_222_32117)" stroke="url(#paint1_linear_222_32117)"/>
<defs>
<linearGradient id="paint0_linear_222_32117" x1="-10.4955" y1="-18.514" x2="42.1299" y2="-16.0616" gradientUnits="userSpaceOnUse">
<stop stop-color="#FA8116"/>
<stop offset="1" stop-color="#FFCA2B"/>
</linearGradient>
<linearGradient id="paint1_linear_222_32117" x1="-10.4955" y1="-18.514" x2="42.1299" y2="-16.0616" gradientUnits="userSpaceOnUse">
<stop stop-color="#FA8116"/>
<stop offset="1" stop-color="#FFCA2B"/>
</linearGradient>
</defs>
</svg>
