<svg
    width="20"
    height="20"
    viewBox="0 0 20 20"
    fill="none"
    xmlns="http://www.w3.org/2000/svg"
  >
  <g clip-path="url(#clip0_1_20026)">
    <path
        d="M8.33333 6.66666V4.99999C8.33333 4.55797 8.50893 4.13404 8.82149 3.82148C9.13405 3.50892 9.55797 3.33333 10 3.33333H15.8333C16.2754 3.33333 16.6993 3.50892 17.0118 3.82148C17.3244 4.13404 17.5 4.55797 17.5 4.99999V15C17.5 15.442 17.3244 15.8659 17.0118 16.1785C16.6993 16.4911 16.2754 16.6667 15.8333 16.6667H10C9.55797 16.6667 9.13405 16.4911 8.82149 16.1785C8.50893 15.8659 8.33333 15.442 8.33333 15V13.3333"
        stroke="#344054"
        stroke-width="1.33333"
        stroke-linecap="round"
        stroke-linejoin="round"
      />
    <path
        d="M3.33317 10H14.1665M14.1665 10L11.6665 7.5M14.1665 10L11.6665 12.5"
        stroke="#344054"
        stroke-width="1.33333"
        stroke-linecap="round"
        stroke-linejoin="round"
      />
  </g>
  <defs>
    <clipPath id="clip0_1_20026">
      <rect
          width="20"
          height="20"
          fill="white"
          transform="matrix(-1 0 0 1 20 0)"
        />
    </clipPath>
  </defs>
</svg>