<svg
    xmlns="http://www.w3.org/2000/svg"
    width="17"
    height="16"
    viewBox="0 0 17 16"
    fill="none"
  >
  <g clip-path="url(#clip0_2_368)">
    <path
        d="M2.49902 6.66667C2.49902 7.2795 2.61973 7.88634 2.85425 8.45252C3.08877 9.01871 3.43252 9.53316 3.86586 9.9665C4.2992 10.3998 4.81365 10.7436 5.37983 10.9781C5.94602 11.2126 6.55285 11.3333 7.16569 11.3333C7.77853 11.3333 8.38536 11.2126 8.95155 10.9781C9.51773 10.7436 10.0322 10.3998 10.4655 9.9665C10.8989 9.53316 11.2426 9.01871 11.4771 8.45252C11.7117 7.88634 11.8324 7.2795 11.8324 6.66667C11.8324 6.05383 11.7117 5.447 11.4771 4.88081C11.2426 4.31462 10.8989 3.80018 10.4655 3.36683C10.0322 2.93349 9.51773 2.58975 8.95155 2.35523C8.38536 2.12071 7.77853 2 7.16569 2C6.55285 2 5.94602 2.12071 5.37983 2.35523C4.81365 2.58975 4.2992 2.93349 3.86586 3.36683C3.43252 3.80018 3.08877 4.31462 2.85425 4.88081C2.61973 5.447 2.49902 6.05383 2.49902 6.66667Z"
        stroke="#667085"
        stroke-width="1.33333"
        stroke-linecap="round"
        stroke-linejoin="round"
      />
    <path
        d="M14.499 14L10.499 10"
        stroke="#667085"
        stroke-width="1.33333"
        stroke-linecap="round"
        stroke-linejoin="round"
      />
  </g>
  <defs>
    <clipPath id="clip0_2_368">
      <rect
          width="16"
          height="16"
          fill="white"
          transform="translate(0.499023)"
        />
    </clipPath>
  </defs>
</svg>