<svg xmlns="http://www.w3.org/2000/svg" width="24" height="24" viewBox="0 0 24 24" fill="none">
    <path d="M4.9258 4.92615L7.74682 7.74716M19.0735 19.0738L16.2528 16.2531M13.4733 17.364C12.996 17.4545 12.5036 17.5019 12 17.5019C8.48065 17.5019 5.50154 15.1888 4.5 12C4.77266 11.1319 5.19187 10.3287 5.72863 9.61939M10.3323 10.3327C10.759 9.90596 11.3485 9.64204 11.9996 9.64204C13.3019 9.64204 14.3576 10.6977 14.3576 12C14.3576 12.6511 14.0937 13.2406 13.667 13.6673M10.3323 10.3327L13.667 13.6673M10.3323 10.3327L7.74682 7.74716M13.667 13.6673L7.74682 7.74716M13.667 13.6673L16.2528 16.2531M7.74682 7.74716C8.97281 6.95677 10.4328 6.49811 12 6.49811C15.5193 6.49811 18.4985 8.81119 19.5 12C18.9444 13.769 17.7802 15.2685 16.2528 16.2531"
          stroke="#667085" stroke-width="1.13" stroke-linecap="round" stroke-linejoin="round"/>
</svg>