<svg xmlns="http://www.w3.org/2000/svg" width="16" height="16" viewBox="0 0 16 16" fill="none">
    <g clip-path="url(#clip0_212_2758)">
        <path d="M0 8C0 3.58172 3.58172 0 8 0C12.4183 0 16 3.58172 16 8C16 12.4183 12.4183 16 8 16C3.58172 16 0 12.4183 0 8Z"
              fill="#FDB022"/>
        <path d="M8.00001 14.6667C4.31801 14.6667 1.33334 11.682 1.33334 8.00004C1.33334 4.31804 4.31801 1.33337 8.00001 1.33337C11.682 1.33337 14.6667 4.31804 14.6667 8.00004C14.6667 11.682 11.682 14.6667 8.00001 14.6667ZM8.00001 13.3334C9.4145 13.3334 10.7711 12.7715 11.7712 11.7713C12.7714 10.7711 13.3333 9.41453 13.3333 8.00004C13.3333 6.58555 12.7714 5.229 11.7712 4.2288C10.7711 3.22861 9.4145 2.66671 8.00001 2.66671C6.58552 2.66671 5.22897 3.22861 4.22877 4.2288C3.22858 5.229 2.66668 6.58555 2.66668 8.00004C2.66668 9.41453 3.22858 10.7711 4.22877 11.7713C5.22897 12.7715 6.58552 13.3334 8.00001 13.3334ZM8.66668 7.33337H10.6667L7.33334 12V8.66671H5.33334L8.66668 4.00004V7.33337Z"
              fill="#FCFCFD"/>
    </g>
    <defs>
        <clipPath id="clip0_212_2758">
            <rect width="16" height="16" fill="white"/>
        </clipPath>
    </defs>
</svg>