<svg
    width="100"
    height="24"
    viewBox="0 0 100 24"
    fill="none"
    xmlns="http://www.w3.org/2000/svg"
  >
  <path
      d="M13.3208 18.3019L18.8303 16.9057L21.1322 24L13.3208 18.3019ZM26.0001 9.13208H16.302L13.3208 0L10.3397 9.13208H0.641602L8.49066 14.7925L5.50952 23.9245L13.3586 18.2641L18.1888 14.7925L26.0001 9.13208Z"
      fill="#4FB37F"
    />
  <path
      d="M36.1016 7.52344V18.8984H33.7656V7.52344H36.1016ZM39.6016 7.52344V9.35938H30.3203V7.52344H39.6016ZM42.5 12.2891V18.8984H40.25V10.4453H42.3672L42.5 12.2891ZM45.0469 10.3906L45.0078 12.4766C44.8984 12.4609 44.7656 12.4479 44.6094 12.4375C44.4583 12.4219 44.3203 12.4141 44.1953 12.4141C43.8776 12.4141 43.6016 12.4557 43.3672 12.5391C43.138 12.6172 42.9453 12.7344 42.7891 12.8906C42.638 13.0469 42.5234 13.237 42.4453 13.4609C42.3724 13.6849 42.3307 13.9401 42.3203 14.2266L41.8672 14.0859C41.8672 13.5391 41.9219 13.0365 42.0312 12.5781C42.1406 12.1146 42.2995 11.7109 42.5078 11.3672C42.7214 11.0234 42.9818 10.7578 43.2891 10.5703C43.5964 10.3828 43.9479 10.2891 44.3438 10.2891C44.4688 10.2891 44.5964 10.2995 44.7266 10.3203C44.8568 10.3359 44.9635 10.3594 45.0469 10.3906ZM51.1094 16.875V10.4453H53.3594V18.8984H51.2422L51.1094 16.875ZM51.3594 15.1406L52.0234 15.125C52.0234 15.6875 51.9583 16.2109 51.8281 16.6953C51.6979 17.1745 51.5026 17.5911 51.2422 17.9453C50.9818 18.2943 50.6536 18.5677 50.2578 18.7656C49.862 18.9583 49.3958 19.0547 48.8594 19.0547C48.4479 19.0547 48.0677 18.9974 47.7188 18.8828C47.375 18.763 47.0781 18.5781 46.8281 18.3281C46.5833 18.0729 46.3906 17.7474 46.25 17.3516C46.1146 16.9505 46.0469 16.4688 46.0469 15.9062V10.4453H48.2969V15.9219C48.2969 16.1719 48.3255 16.3828 48.3828 16.5547C48.4453 16.7266 48.5312 16.8672 48.6406 16.9766C48.75 17.0859 48.8776 17.1641 49.0234 17.2109C49.1745 17.2578 49.3411 17.2812 49.5234 17.2812C49.987 17.2812 50.3516 17.1875 50.6172 17C50.888 16.8125 51.0781 16.5573 51.1875 16.2344C51.3021 15.9062 51.3594 15.5417 51.3594 15.1406ZM59.6484 16.5625C59.6484 16.401 59.6016 16.2552 59.5078 16.125C59.4141 15.9948 59.2396 15.875 58.9844 15.7656C58.7344 15.651 58.3724 15.5469 57.8984 15.4531C57.4714 15.3594 57.0729 15.2422 56.7031 15.1016C56.3385 14.9557 56.0208 14.7812 55.75 14.5781C55.4844 14.375 55.276 14.1354 55.125 13.8594C54.974 13.5781 54.8984 13.2578 54.8984 12.8984C54.8984 12.5443 54.974 12.2109 55.125 11.8984C55.2812 11.5859 55.5026 11.3099 55.7891 11.0703C56.0807 10.8255 56.4349 10.6354 56.8516 10.5C57.2734 10.3594 57.7474 10.2891 58.2734 10.2891C59.0078 10.2891 59.638 10.4062 60.1641 10.6406C60.6953 10.875 61.1016 11.1979 61.3828 11.6094C61.6693 12.0156 61.8125 12.4792 61.8125 13H59.5625C59.5625 12.7812 59.5156 12.5859 59.4219 12.4141C59.3333 12.237 59.1927 12.099 59 12C58.8125 11.8958 58.5677 11.8438 58.2656 11.8438C58.0156 11.8438 57.7995 11.888 57.6172 11.9766C57.4349 12.0599 57.2943 12.1745 57.1953 12.3203C57.1016 12.4609 57.0547 12.6172 57.0547 12.7891C57.0547 12.9193 57.0807 13.0365 57.1328 13.1406C57.1901 13.2396 57.2812 13.3307 57.4062 13.4141C57.5312 13.4974 57.6927 13.5755 57.8906 13.6484C58.0938 13.7161 58.3438 13.7786 58.6406 13.8359C59.25 13.9609 59.7943 14.125 60.2734 14.3281C60.7526 14.526 61.1328 14.7969 61.4141 15.1406C61.6953 15.4792 61.8359 15.9245 61.8359 16.4766C61.8359 16.8516 61.7526 17.1953 61.5859 17.5078C61.4193 17.8203 61.1797 18.0938 60.8672 18.3281C60.5547 18.5573 60.1797 18.737 59.7422 18.8672C59.3099 18.9922 58.8229 19.0547 58.2812 19.0547C57.4948 19.0547 56.8281 18.9141 56.2812 18.6328C55.7396 18.3516 55.3281 17.9948 55.0469 17.5625C54.7708 17.125 54.6328 16.6771 54.6328 16.2188H56.7656C56.776 16.526 56.8542 16.7734 57 16.9609C57.151 17.1484 57.3411 17.2839 57.5703 17.3672C57.8047 17.4505 58.0573 17.4922 58.3281 17.4922C58.6198 17.4922 58.862 17.4531 59.0547 17.375C59.2474 17.2917 59.3932 17.1823 59.4922 17.0469C59.5964 16.9062 59.6484 16.7448 59.6484 16.5625ZM67.4375 10.4453V12.0391H62.5156V10.4453H67.4375ZM63.7344 8.35938H65.9844V16.3516C65.9844 16.5964 66.0156 16.7839 66.0781 16.9141C66.1458 17.0443 66.2448 17.1354 66.375 17.1875C66.5052 17.2344 66.6693 17.2578 66.8672 17.2578C67.0078 17.2578 67.1328 17.2526 67.2422 17.2422C67.3568 17.2266 67.4531 17.2109 67.5312 17.1953L67.5391 18.8516C67.3464 18.9141 67.138 18.9635 66.9141 19C66.6901 19.0365 66.4427 19.0547 66.1719 19.0547C65.6771 19.0547 65.2448 18.974 64.875 18.8125C64.5104 18.6458 64.2292 18.3802 64.0312 18.0156C63.8333 17.651 63.7344 17.1719 63.7344 16.5781V8.35938ZM70.9688 12.0703V22.1484H68.7188V10.4453H70.8047L70.9688 12.0703ZM76.3203 14.5781V14.7422C76.3203 15.3568 76.2474 15.9271 76.1016 16.4531C75.9609 16.9792 75.7526 17.4375 75.4766 17.8281C75.2005 18.2135 74.8568 18.5156 74.4453 18.7344C74.0391 18.9479 73.5703 19.0547 73.0391 19.0547C72.5234 19.0547 72.0755 18.9505 71.6953 18.7422C71.3151 18.5339 70.9948 18.2422 70.7344 17.8672C70.4792 17.487 70.2734 17.0469 70.1172 16.5469C69.9609 16.0469 69.8411 15.5104 69.7578 14.9375V14.5078C69.8411 13.8932 69.9609 13.3307 70.1172 12.8203C70.2734 12.3047 70.4792 11.8594 70.7344 11.4844C70.9948 11.1042 71.3125 10.8099 71.6875 10.6016C72.0677 10.3932 72.513 10.2891 73.0234 10.2891C73.5599 10.2891 74.0312 10.3906 74.4375 10.5938C74.849 10.7969 75.1927 11.0885 75.4688 11.4688C75.75 11.849 75.9609 12.3021 76.1016 12.8281C76.2474 13.3542 76.3203 13.9375 76.3203 14.5781ZM74.0625 14.7422V14.5781C74.0625 14.2188 74.0312 13.888 73.9688 13.5859C73.9115 13.2786 73.8177 13.0104 73.6875 12.7812C73.5625 12.5521 73.3958 12.375 73.1875 12.25C72.9844 12.1198 72.737 12.0547 72.4453 12.0547C72.138 12.0547 71.875 12.1042 71.6562 12.2031C71.4427 12.3021 71.2682 12.4453 71.1328 12.6328C70.9974 12.8203 70.8958 13.0443 70.8281 13.3047C70.7604 13.5651 70.7188 13.8594 70.7031 14.1875V15.2734C70.7292 15.6589 70.8021 16.0052 70.9219 16.3125C71.0417 16.6146 71.2266 16.8542 71.4766 17.0312C71.7266 17.2083 72.0547 17.2969 72.4609 17.2969C72.7578 17.2969 73.0078 17.2318 73.2109 17.1016C73.4141 16.9661 73.5781 16.7812 73.7031 16.5469C73.8333 16.3125 73.9245 16.0417 73.9766 15.7344C74.0339 15.4271 74.0625 15.0964 74.0625 14.7422ZM80.0938 10.4453V18.8984H77.8359V10.4453H80.0938ZM77.6953 8.24219C77.6953 7.91406 77.8099 7.64323 78.0391 7.42969C78.2682 7.21615 78.5755 7.10938 78.9609 7.10938C79.3411 7.10938 79.6458 7.21615 79.875 7.42969C80.1094 7.64323 80.2266 7.91406 80.2266 8.24219C80.2266 8.57031 80.1094 8.84115 79.875 9.05469C79.6458 9.26823 79.3411 9.375 78.9609 9.375C78.5755 9.375 78.2682 9.26823 78.0391 9.05469C77.8099 8.84115 77.6953 8.57031 77.6953 8.24219ZM84.3281 6.89844V18.8984H82.0703V6.89844H84.3281ZM85.8281 14.7578V14.5938C85.8281 13.974 85.9167 13.4036 86.0938 12.8828C86.2708 12.3568 86.5286 11.901 86.8672 11.5156C87.2057 11.1302 87.6224 10.8307 88.1172 10.6172C88.612 10.3984 89.1797 10.2891 89.8203 10.2891C90.4609 10.2891 91.0312 10.3984 91.5312 10.6172C92.0312 10.8307 92.4505 11.1302 92.7891 11.5156C93.1328 11.901 93.3932 12.3568 93.5703 12.8828C93.7474 13.4036 93.8359 13.974 93.8359 14.5938V14.7578C93.8359 15.3724 93.7474 15.9427 93.5703 16.4688C93.3932 16.9896 93.1328 17.4453 92.7891 17.8359C92.4505 18.2214 92.0339 18.5208 91.5391 18.7344C91.0443 18.9479 90.4766 19.0547 89.8359 19.0547C89.1953 19.0547 88.625 18.9479 88.125 18.7344C87.6302 18.5208 87.2109 18.2214 86.8672 17.8359C86.5286 17.4453 86.2708 16.9896 86.0938 16.4688C85.9167 15.9427 85.8281 15.3724 85.8281 14.7578ZM88.0781 14.5938V14.7578C88.0781 15.112 88.1094 15.4427 88.1719 15.75C88.2344 16.0573 88.3333 16.3281 88.4688 16.5625C88.6094 16.7917 88.7917 16.9714 89.0156 17.1016C89.2396 17.2318 89.513 17.2969 89.8359 17.2969C90.1484 17.2969 90.4167 17.2318 90.6406 17.1016C90.8646 16.9714 91.0443 16.7917 91.1797 16.5625C91.3151 16.3281 91.4141 16.0573 91.4766 15.75C91.5443 15.4427 91.5781 15.112 91.5781 14.7578V14.5938C91.5781 14.25 91.5443 13.9271 91.4766 13.625C91.4141 13.3177 91.3125 13.0469 91.1719 12.8125C91.0365 12.5729 90.8568 12.3854 90.6328 12.25C90.4089 12.1146 90.138 12.0469 89.8203 12.0469C89.5026 12.0469 89.2318 12.1146 89.0078 12.25C88.7891 12.3854 88.6094 12.5729 88.4688 12.8125C88.3333 13.0469 88.2344 13.3177 88.1719 13.625C88.1094 13.9271 88.0781 14.25 88.0781 14.5938ZM99.3594 10.4453V12.0391H94.4375V10.4453H99.3594ZM95.6562 8.35938H97.9062V16.3516C97.9062 16.5964 97.9375 16.7839 98 16.9141C98.0677 17.0443 98.1667 17.1354 98.2969 17.1875C98.4271 17.2344 98.5911 17.2578 98.7891 17.2578C98.9297 17.2578 99.0547 17.2526 99.1641 17.2422C99.2786 17.2266 99.375 17.2109 99.4531 17.1953L99.4609 18.8516C99.2682 18.9141 99.0599 18.9635 98.8359 19C98.612 19.0365 98.3646 19.0547 98.0938 19.0547C97.599 19.0547 97.1667 18.974 96.7969 18.8125C96.4323 18.6458 96.151 18.3802 95.9531 18.0156C95.7552 17.651 95.6562 17.1719 95.6562 16.5781V8.35938Z"
      fill="#111828"
    />
</svg>