<svg
    xmlns="http://www.w3.org/2000/svg"
    width="20"
    height="20"
    viewBox="0 0 20 20"
    fill="none"
  >
  <g clip-path="url(#clip0_2_9940)">
    <path
        d="M7.65245 5.09752C6.57412 4.88096 5.45448 5.026 4.46692 5.51017C3.47937 5.99433 2.67901 6.79062 2.1898 7.77569C1.70059 8.76076 1.54984 9.87965 1.76089 10.9591C1.97193 12.0385 2.533 13.0182 3.3572 13.7465C4.1814 14.4748 5.22273 14.9109 6.31992 14.9875C7.41711 15.0641 8.50893 14.7767 9.42629 14.17C10.3436 13.5632 11.0353 12.6709 11.3943 11.6313C11.7532 10.5916 11.7593 9.46265 11.4116 8.41918"
        stroke="#344054"
        stroke-width="1.66667"
        stroke-linecap="round"
        stroke-linejoin="round"
      />
    <path
        d="M12.3443 14.9025C13.4237 15.1202 14.5448 14.9754 15.5336 14.4906C16.5224 14.0059 17.3234 13.2082 17.8124 12.2216C18.3015 11.2349 18.4511 10.1144 18.2381 9.03405C18.0251 7.95365 17.4614 6.97379 16.6345 6.24657C15.8076 5.51935 14.7637 5.08545 13.665 5.01223C12.5662 4.93901 11.474 5.23056 10.5579 5.84163C9.64185 6.4527 8.95311 7.3491 8.59864 8.39169C8.24417 9.43427 8.2438 10.5647 8.59758 11.6075"
        stroke="#344054"
        stroke-width="1.66667"
        stroke-linecap="round"
        stroke-linejoin="round"
      />
  </g>
  <defs>
    <clipPath id="clip0_2_9940">
      <rect
          width="20"
          height="20"
          fill="white"
        />
    </clipPath>
  </defs>
</svg>