<svg
    width="338"
    height="44"
    viewBox="0 0 338 44"
    fill="none"
    xmlns="http://www.w3.org/2000/svg"
  >
  <g filter="url(#filter0_d_208_16753)">
    <rect
        x="2"
        y="1"
        width="334"
        height="40"
        rx="6"
        fill="#FCFCFD"
      />
    <circle
        cx="24"
        cy="21"
        r="10.5"
        fill="white"
        stroke="#F3F4F6"
      />
    <path
        d="M29.652 19.6957C29.3476 19.6957 28.9708 19.6957 28.3476 19.6957C28.3476 22.0969 26.401 24.0435 23.9998 24.0435C21.5985 24.0435 19.652 22.0969 19.652 19.6957C19.2317 19.6957 18.7679 19.6957 18.3477 19.6957C18.3477 22.2822 20.085 24.4629 22.4565 25.1345C22.1965 25.6285 22.2361 26.2503 22.6075 26.7138C23.0953 26.3228 23.6004 25.9181 24.0288 25.5748C24.4572 25.9181 24.9623 26.3228 25.4501 26.7138C25.8252 26.2457 25.8621 25.616 25.5934 25.1197C27.9389 24.4316 29.652 22.2638 29.652 19.6957Z"
        fill="#6DA544"
      />
    <path
        d="M20.5234 19.2609C20.5234 19.2609 20.5234 21.4348 22.6973 21.4348L23.1321 21.8696H24.0017C24.0017 21.8696 24.4364 20.5652 25.306 20.5652C25.306 20.5652 25.306 19.6956 26.1756 19.6956C27.0452 19.6956 27.4799 19.6956 27.4799 19.6956C27.4799 19.6956 27.0452 17.9565 29.2191 16.6522L28.3495 16.2174C28.3495 16.2174 25.306 18.3913 23.1321 17.9565V18.8261H22.2625L21.8278 18.3914L20.5234 19.2609Z"
        fill="#FFDA44"
      />
    <path
        d="M45.9922 24.2898V17.5682H47.3295V24.2898H45.9922ZM43.3026 21.5952V20.2628H50.0241V21.5952H43.3026ZM55.7116 26.1392C55.0289 26.1392 54.419 26.0215 53.8821 25.7862C53.3485 25.5509 52.9259 25.2244 52.6143 24.8068C52.3061 24.3859 52.1404 23.8987 52.1172 23.3452H53.6783C53.6982 23.6468 53.7992 23.9086 53.9815 24.1307C54.1671 24.3494 54.4091 24.5185 54.7074 24.6378C55.0057 24.7571 55.3371 24.8168 55.7017 24.8168C56.1027 24.8168 56.4574 24.7472 56.7656 24.608C57.0772 24.4687 57.3208 24.2749 57.4964 24.0263C57.6721 23.7744 57.7599 23.4844 57.7599 23.1562C57.7599 22.8149 57.6721 22.5149 57.4964 22.2564C57.3241 21.9946 57.0705 21.7891 56.7358 21.6399C56.4044 21.4908 56.0033 21.4162 55.5327 21.4162H54.6726V20.1634H55.5327C55.9105 20.1634 56.242 20.0954 56.527 19.9595C56.8153 19.8236 57.0407 19.6347 57.2031 19.3928C57.3655 19.1475 57.4467 18.8608 57.4467 18.5327C57.4467 18.2178 57.3755 17.9444 57.233 17.7124C57.0938 17.477 56.8949 17.2931 56.6364 17.1605C56.3812 17.0279 56.0795 16.9616 55.7315 16.9616C55.4001 16.9616 55.0902 17.023 54.8018 17.1456C54.5168 17.2649 54.2848 17.4373 54.1058 17.6626C53.9268 17.8847 53.8307 18.1515 53.8175 18.4631H52.331C52.3475 17.9129 52.5099 17.429 52.8182 17.0114C53.1297 16.5937 53.5407 16.2673 54.0511 16.032C54.5616 15.7966 55.1283 15.679 55.7514 15.679C56.4044 15.679 56.9678 15.8066 57.4418 16.0618C57.919 16.3137 58.2869 16.6501 58.5455 17.071C58.8073 17.492 58.9366 17.9527 58.9332 18.4531C58.9366 19.0232 58.7775 19.5071 58.456 19.9048C58.1378 20.3026 57.7135 20.5694 57.1832 20.7053V20.7848C57.8594 20.8875 58.383 21.156 58.7543 21.5902C59.1288 22.0244 59.3144 22.563 59.3111 23.206C59.3144 23.7661 59.1586 24.2682 58.8438 24.7124C58.5322 25.1565 58.1063 25.5062 57.5661 25.7614C57.0258 26.0133 56.4077 26.1392 55.7116 26.1392ZM61.5334 26L65.978 17.2102V17.1357H60.8374V15.8182H67.5689V17.1804L63.1392 26H61.5334ZM72.5218 26.1392C71.8987 26.1392 71.3386 26.0199 70.8414 25.7812C70.3476 25.5393 69.9532 25.2079 69.6582 24.7869C69.3632 24.366 69.2058 23.8854 69.1859 23.3452H70.6774C70.7138 23.7827 70.9077 24.1423 71.2591 24.424C71.6104 24.7057 72.0313 24.8466 72.5218 24.8466C72.9129 24.8466 73.2593 24.7571 73.5609 24.5781C73.8658 24.3958 74.1045 24.1456 74.2768 23.8274C74.4525 23.5092 74.5403 23.1463 74.5403 22.7386C74.5403 22.3243 74.4508 21.9548 74.2718 21.63C74.0929 21.3052 73.8459 21.05 73.5311 20.8643C73.2195 20.6787 72.8616 20.5843 72.4572 20.581C72.149 20.581 71.8391 20.634 71.5275 20.7401C71.216 20.8461 70.9641 20.9853 70.7718 21.1577L69.3649 20.9489L69.9366 15.8182H75.5346V17.1357H71.2143L70.8912 19.9844H70.9508C71.1497 19.7921 71.4132 19.6314 71.7413 19.5021C72.0727 19.3729 72.4274 19.3082 72.8052 19.3082C73.425 19.3082 73.9769 19.4557 74.4608 19.7507C74.948 20.0457 75.3308 20.4484 75.6092 20.9588C75.8909 21.4659 76.0301 22.0492 76.0268 22.7088C76.0301 23.3684 75.881 23.9567 75.5794 24.4737C75.2811 24.9908 74.8668 25.3984 74.3365 25.6967C73.8095 25.9917 73.2046 26.1392 72.5218 26.1392Z"
        fill="#667085"
      />
    <g clip-path="url(#clip0_208_16753)">
      <path
          d="M93.0005 21.7813L96.3005 18.4813L97.2431 19.424L93.0005 23.6667L88.7578 19.424L89.7005 18.4813L93.0005 21.7813Z"
          fill="#344054"
        />
    </g>
    <path
        d="M108 11V31H110V11H108Z"
        fill="#D0D5DD"
        mask="url(#path-3-inside-1_208_16753)"
      />
    <rect
        x="3.5"
        y="2.5"
        width="331"
        height="37"
        rx="4.5"
        stroke="url(#paint0_linear_208_16753)"
        stroke-width="3"
      />
  </g>
  <defs>
    <filter
        id="filter0_d_208_16753"
        x="0"
        y="0"
        width="338"
        height="44"
        filterUnits="userSpaceOnUse"
        color-interpolation-filters="sRGB"
      >
      <feFlood
          flood-opacity="0"
          result="BackgroundImageFix"
        />
      <feColorMatrix
          in="SourceAlpha"
          type="matrix"
          values="0 0 0 0 0 0 0 0 0 0 0 0 0 0 0 0 0 0 127 0"
          result="hardAlpha"
        />
      <feOffset dy="1" />
      <feGaussianBlur stdDeviation="1" />
      <feColorMatrix
          type="matrix"
          values="0 0 0 0 0.0627451 0 0 0 0 0.0941176 0 0 0 0 0.156863 0 0 0 0.05 0"
        />
      <feBlend
          mode="normal"
          in2="BackgroundImageFix"
          result="effect1_dropShadow_208_16753"
        />
      <feBlend
          mode="normal"
          in="SourceGraphic"
          in2="effect1_dropShadow_208_16753"
          result="shape"
        />
    </filter>
    <linearGradient
        id="paint0_linear_208_16753"
        x1="40.3279"
        y1="21"
        x2="336"
        y2="21"
        gradientUnits="userSpaceOnUse"
      >
      <stop stop-color="#6172F3" />
      <stop
          offset="1"
          stop-color="#D0D5DD"
          stop-opacity="0"
        />
    </linearGradient>
    <clipPath id="clip0_208_16753">
      <rect
          width="16"
          height="16"
          fill="white"
          transform="translate(85 13)"
        />
    </clipPath>
  </defs>
</svg>