<svg xmlns="http://www.w3.org/2000/svg" width="24" height="21" viewBox="0 0 24 21" fill="none">
    <g clip-path="url(#clip0_254_27617)">
        <path d="M8.88111 3.38108C9.40908 3.65054 9.61888 4.29584 9.35042 4.82431L2.0269 19.2267C1.75844 19.7537 1.11413 19.9635 0.587153 19.6956L0.585662 19.6951C0.0581856 19.4256 -0.151612 18.7798 0.116849 18.2513L7.43987 3.8489C7.70833 3.32192 8.35264 3.11212 8.87962 3.38009L8.88111 3.38108ZM10.4307 8.5758C10.9582 8.84526 11.1685 9.49106 10.8995 10.0195L6.21788 19.2267C5.94942 19.7537 5.30511 19.9635 4.77813 19.6956L4.77664 19.6951C4.24916 19.4256 4.03936 18.7798 4.30783 18.2513L8.98949 9.04412C9.25795 8.51714 9.90226 8.30734 10.4292 8.57531L10.4307 8.5758ZM12.5342 12.8592C13.0611 13.1287 13.2714 13.775 13.0025 14.303L10.4988 19.2267C10.2309 19.7537 9.58657 19.9635 9.05959 19.6956L9.05809 19.6951C8.53012 19.4256 8.32032 18.7798 8.58879 18.2513L11.0924 13.3276C11.3609 12.8006 12.0052 12.5908 12.5322 12.8588L12.5342 12.8592Z"
              fill="#37C5D3"/>
        <path d="M8.4729 0.00646295C9.066 0.0203831 9.5358 0.511567 9.52238 1.10318C9.33645 9.24302 14.916 16.4949 22.9653 18.3533C23.5435 18.4865 23.9039 19.0627 23.7707 19.6394C23.6375 20.2161 23.0613 20.5756 22.4831 20.4418C13.4359 18.3533 7.16589 10.204 7.37469 1.05247C7.38811 0.460858 7.8798 -0.00795441 8.4729 0.00646295ZM12.1613 0.0029829C12.7544 0.0174003 13.2237 0.509579 13.2097 1.10119C13.0666 7.16741 17.2307 12.9055 22.9768 14.2319C23.5544 14.3652 23.9154 14.9413 23.7821 15.518C23.6489 16.0947 23.0722 16.4542 22.4945 16.3209C15.7248 14.7579 10.896 8.10355 11.0626 1.04849C11.0765 0.456881 11.5687 -0.0114344 12.1613 0.0029829ZM15.861 0C16.4536 0 16.9349 0.480744 16.9349 1.07235C16.9369 4.99735 19.9595 9.31908 23.2775 10.47C23.8378 10.6649 24.1346 11.2754 23.9402 11.8347C23.7463 12.394 23.1344 12.6893 22.5741 12.4954C18.3846 11.0417 14.7892 5.90217 14.7872 1.07186C14.7872 0.479253 15.2674 0 15.861 0Z"
              fill="#FFB900"/>
    </g>
    <defs>
        <clipPath id="clip0_254_27617">
            <rect width="24" height="20.4697" fill="white"/>
        </clipPath>
    </defs>
</svg>