<svg
    xmlns="http://www.w3.org/2000/svg"
    width="16"
    height="16"
    viewBox="0 0 16 16"
    fill="none"
  >
  <g clip-path="url(#clip0_2_28586)">
    <path
        d="M4.6521 2.04932C5.24214 1.94879 5.84722 1.98195 6.42274 2.14637C6.99826 2.31079 7.52955 2.60227 7.97743 2.99932L8.0021 3.02132L8.02477 3.00132C8.45223 2.62619 8.95478 2.34652 9.49889 2.18098C10.043 2.01543 10.6161 1.96782 11.1801 2.04132L11.3441 2.06532C12.055 2.18806 12.7194 2.50076 13.2671 2.9703C13.8147 3.43984 14.2252 4.04875 14.4551 4.73254C14.6849 5.41634 14.7256 6.14956 14.5727 6.85457C14.4198 7.55958 14.0792 8.21012 13.5868 8.73732L13.4668 8.86065L13.4348 8.88799L8.4681 13.8073C8.35348 13.9208 8.20164 13.9888 8.04069 13.9989C7.87974 14.0089 7.72061 13.9603 7.59277 13.862L7.5301 13.8073L2.53477 8.85932C2.00558 8.34443 1.62923 7.69311 1.44741 6.9775C1.26558 6.26189 1.28537 5.50992 1.50458 4.80486C1.72379 4.09981 2.13387 3.46919 2.68941 2.98284C3.24494 2.49648 3.92425 2.17339 4.6521 2.04932Z"
        fill="#FEB273"
      />
  </g>
  <defs>
    <clipPath id="clip0_2_28586">
      <rect
          width="16"
          height="16"
          fill="white"
        />
    </clipPath>
  </defs>
</svg>