<svg xmlns="http://www.w3.org/2000/svg" width="24" height="24" viewBox="0 0 24 24" fill="none">
    <path d="M3.37625 14.6367C3.37625 15.4768 3.56056 16.1216 3.80163 16.5118C4.11762 17.0229 4.58889 17.2398 5.06937 17.2398C5.68901 17.2398 6.25593 17.086 7.3484 15.575C8.22386 14.3639 9.25495 12.664 9.94886 11.5982L11.124 9.79268C11.9403 8.53876 12.8851 7.14486 13.9685 6.20001C14.8531 5.42879 15.8069 5.00037 16.7671 5.00037C18.3791 5.00037 19.9145 5.93452 21.0897 7.68653C22.3758 9.60524 23 12.0221 23 14.5162C23 15.9989 22.7078 17.0883 22.2104 17.949C21.73 18.7814 20.7936 19.613 19.2183 19.613V17.2395C20.5672 17.2395 20.9037 16 20.9037 14.5816C20.9037 12.5603 20.4324 10.3172 19.3942 8.7144C18.6576 7.57751 17.7028 6.88287 16.6523 6.88287C15.5162 6.88287 14.6019 7.73989 13.5744 9.2675C13.0281 10.0793 12.4674 11.0684 11.8377 12.1847L11.1445 13.4126C9.7523 15.8819 9.39954 16.444 8.70333 17.3718C7.48313 18.9966 6.44107 19.6127 5.06937 19.6127C3.44205 19.6127 2.41307 18.908 1.77574 17.8461C1.25554 16.9809 1 15.8455 1 14.5518L3.37625 14.6367Z"
          fill="#0081FB"/>
    <path d="M2.87365 7.85369C3.96308 6.1744 5.5353 5 7.33854 5C8.38282 5 9.4212 5.30908 10.5051 6.1943C11.6909 7.1619 12.9548 8.75615 14.5316 11.3825L15.097 12.3248C16.4619 14.5985 17.2383 15.7683 17.6928 16.32C18.2773 17.0283 18.6866 17.2395 19.2183 17.2395C20.5672 17.2395 20.9037 16 20.9037 14.5816L23 14.5162C23 15.9989 22.7078 17.0883 22.2104 17.949C21.73 18.7814 20.7936 19.613 19.2183 19.613C18.239 19.613 17.3715 19.4001 16.4121 18.4949C15.6749 17.8003 14.8123 16.5663 14.149 15.4569L12.1759 12.1611C11.186 10.507 10.2776 9.27377 9.7523 8.71523C9.18685 8.11458 8.46004 7.38934 7.30021 7.38934C6.36154 7.38934 5.56433 8.04805 4.89723 9.05564L2.87365 7.85369Z"
          fill="url(#paint0_linear_79_10185)"/>
    <path d="M7.30021 7.38934C6.36154 7.38934 5.56433 8.04805 4.89723 9.05564C3.95386 10.4794 3.37625 12.6001 3.37625 14.6367C3.37625 15.4768 3.56056 16.1216 3.80163 16.5118L1.77574 17.8461C1.25554 16.9809 1 15.8455 1 14.5518C1 12.1993 1.64571 9.74725 2.87365 7.85369C3.96308 6.1744 5.5353 5 7.33854 5L7.30021 7.38934Z"
          fill="url(#paint1_linear_79_10185)"/>
    <defs>
        <linearGradient id="paint0_linear_79_10185" x1="4.16499" y1="11.9278" x2="20.7151" y2="12.8415"
                        gradientUnits="userSpaceOnUse">
            <stop stop-color="#0064E1"/>
            <stop offset="0.4" stop-color="#0064E1"/>
            <stop offset="0.83" stop-color="#0073EE"/>
            <stop offset="1" stop-color="#0082FB"/>
        </linearGradient>
        <linearGradient id="paint1_linear_79_10185" x1="4.16923" y1="15.6343" x2="4.16923" y2="10.0494"
                        gradientUnits="userSpaceOnUse">
            <stop stop-color="#0082FB"/>
            <stop offset="1" stop-color="#0064E0"/>
        </linearGradient>
    </defs>
</svg>