<svg xmlns="http://www.w3.org/2000/svg" width="25" height="24" viewBox="0 0 25 24" fill="none">
    <path d="M16.3389 17V16H13.2918V13H16.3389V15H18.3704V17H17.3546V19H15.3232V21H13.2918V18H15.3232V17H16.3389ZM21.4175 21H17.3546V19H19.3861V17H21.4175V21ZM3.13477 3H11.2604V11H3.13477V3ZM5.16618 5V9H9.229V5H5.16618ZM13.2918 3H21.4175V11H13.2918V3ZM15.3232 5V9H19.3861V5H15.3232ZM3.13477 13H11.2604V21H3.13477V13ZM5.16618 15V19H9.229V15H5.16618ZM18.3704 13H21.4175V15H18.3704V13ZM6.18188 6H8.21329V8H6.18188V6ZM6.18188 16H8.21329V18H6.18188V16ZM16.3389 6H18.3704V8H16.3389V6Z"
          fill="#6172F3"/>
</svg>