<svg xmlns="http://www.w3.org/2000/svg" width="25" height="24" viewBox="0 0 25 24" fill="none">
    <g clip-path="url(#clip0_104_22787)">
        <path d="M8.5 12C8.5 13.0609 8.92143 14.0783 9.67157 14.8284C10.4217 15.5786 11.4391 16 12.5 16C13.5609 16 14.5783 15.5786 15.3284 14.8284C16.0786 14.0783 16.5 13.0609 16.5 12C16.5 10.9391 16.0786 9.92172 15.3284 9.17157C14.5783 8.42143 13.5609 8 12.5 8C11.4391 8 10.4217 8.42143 9.67157 9.17157C8.92143 9.92172 8.5 10.9391 8.5 12Z"
              stroke="#344054" stroke-width="3" stroke-linecap="round" stroke-linejoin="round"/>
        <path d="M16.5 12V13.5C16.5 14.163 16.7634 14.7989 17.2322 15.2677C17.7011 15.7366 18.337 16 19 16C19.663 16 20.2989 15.7366 20.7678 15.2677C21.2366 14.7989 21.5 14.163 21.5 13.5V12C21.5025 10.0661 20.882 8.18281 19.7304 6.62916C18.5788 5.07551 16.9574 3.93412 15.1064 3.37407C13.2554 2.81402 11.2732 2.86509 9.45343 3.51973C7.63371 4.17437 6.07324 5.39775 5.00321 7.00865C3.93317 8.61954 3.41047 10.5323 3.51255 12.4635C3.61463 14.3947 4.33605 16.2416 5.56995 17.7307C6.80385 19.2198 8.48459 20.2719 10.3632 20.7311C12.2418 21.1902 14.2183 21.032 16 20.28"
              stroke="#344054" stroke-width="3" stroke-linecap="round" stroke-linejoin="round"/>
    </g>
    <defs>
        <clipPath id="clip0_104_22787">
            <rect width="24" height="24" fill="white" transform="translate(0.5)"/>
        </clipPath>
    </defs>
</svg>