<svg viewBox="0 0 145 64" fill="none" preserveAspectRatio="none" xmlns="http://www.w3.org/2000/svg">
  <circle cx="24.332" cy="32" r="22.5" stroke="#6172F3" stroke-width="3"/>
  <path fill-rule="evenodd" clip-rule="evenodd" d="M17.8229 19.735L17.8408 19.7399C17.7997 19.77 17.7823 19.7817 17.7809 19.7801C17.7795 19.7784 17.7967 19.7613 17.8229 19.735ZM17.9965 19.7813C18.0143 19.715 18.0322 19.649 18.05 19.5836C17.9499 19.6587 17.8829 19.709 17.8408 19.7399C17.8927 19.754 17.9446 19.7678 17.9965 19.7813ZM17.9965 19.7813C17.9008 20.1369 17.8051 20.5038 17.7093 20.8706C17.5958 21.306 17.4822 21.7413 17.3687 22.1577C17.2929 22.3091 17.3687 22.3848 17.5201 22.3848C17.6389 22.4145 17.7606 22.4442 17.8847 22.4745L17.8847 22.4745C18.3931 22.5986 18.9408 22.7322 19.4885 22.9148C20.1699 23.1419 20.5485 23.8233 20.397 24.429C19.4885 28.3659 18.5043 32.2271 17.5201 36.0883C17.4444 36.6183 16.9901 36.9211 16.3844 36.7697C15.8545 36.694 15.2488 36.5426 14.7188 36.3912C14.4917 36.3912 14.416 36.3912 14.3403 36.6183C14.1131 37.224 13.8103 37.9054 13.5075 38.5867C13.4317 38.7382 13.375 38.8707 13.3182 39.0031C13.2614 39.1356 13.2046 39.2681 13.1289 39.4195C14.9458 39.8738 16.6869 40.328 18.4281 40.7822L18.4286 40.7823C18.4286 40.871 18.4026 40.9337 18.3811 40.9857C18.3659 41.0224 18.3529 41.0538 18.3529 41.0852C17.9743 42.2965 17.6715 43.5836 17.3687 44.8706L17.3687 44.8707C17.2929 45.0221 17.2929 45.0978 17.5201 45.1735C18.2772 45.3249 19.0343 45.4763 19.7914 45.7035C19.9915 45.7702 20.0153 45.7193 20.0699 45.6027C20.0773 45.587 20.0852 45.5701 20.0942 45.552C20.1699 45.2114 20.2645 44.8707 20.3592 44.53L20.3592 44.53C20.4538 44.1893 20.5485 43.8486 20.6242 43.5079C20.6999 43.1672 20.7945 42.8265 20.8892 42.4858C20.9838 42.1451 21.0784 41.8044 21.1541 41.4637C21.8355 41.6151 22.4411 41.7665 23.0467 41.9179L23.0469 41.918C23.156 41.9725 23.1472 42.0271 23.1337 42.11C23.1285 42.1421 23.1226 42.1785 23.1226 42.2208C22.7441 43.4322 22.4412 44.7192 22.1384 46.0063L22.1384 46.0063C22.0627 46.1577 22.0627 46.2334 22.2898 46.3091C22.6304 46.3848 22.99 46.4795 23.3496 46.5741L23.3497 46.5741L23.3499 46.5742C23.7094 46.6688 24.069 46.7634 24.4097 46.8391C24.7719 46.984 24.7875 46.9209 24.8545 46.6498L24.8639 46.612C25.0153 46.0063 25.1668 45.3817 25.3182 44.7571C25.4696 44.1325 25.621 43.5079 25.7724 42.9022C25.8481 42.6751 25.9996 42.5994 26.2267 42.6751C27.7409 42.9022 29.2551 43.0536 30.845 42.8265C32.0564 42.6751 33.1163 42.1451 33.9491 41.1609C34.6305 40.3281 35.009 39.4195 35.3119 38.3596C35.539 37.5268 35.6147 36.6183 35.4633 35.7855C35.1605 34.7255 34.5548 33.8927 33.6463 33.2113C33.4948 33.0978 33.3434 33.0031 33.192 32.9085C33.0406 32.8139 32.8892 32.7192 32.7377 32.6057C32.8264 32.6057 32.8892 32.5797 32.9411 32.5582C32.9779 32.5429 33.0092 32.53 33.0406 32.53C33.6463 32.3028 34.2519 32 34.7062 31.5457C35.3119 30.9401 35.6147 30.183 35.8418 29.3501C36.1447 28.1388 36.069 26.9274 35.3876 25.7918C34.8576 25.0347 34.1762 24.429 33.4191 23.9748L30.9207 22.8391C30.6936 22.7634 30.6179 22.6877 30.6936 22.4606C30.845 22.082 30.9207 21.7035 30.9964 21.3249C31.2235 20.4164 31.4507 19.5079 31.6778 18.5236C31.6399 18.5236 31.621 18.5047 31.6021 18.4858C31.5832 18.4669 31.5642 18.4479 31.5264 18.4479C31.1676 18.3501 30.8229 18.2663 30.4861 18.1844C30.0412 18.0763 29.6103 17.9715 29.1794 17.8423C29.028 17.7666 28.9523 17.8423 28.9523 17.9937L28.7251 18.9022C28.4223 19.8864 28.1952 20.7949 27.968 21.7792C27.9428 21.8044 27.9176 21.8381 27.8923 21.8717C27.8418 21.939 27.7914 22.0063 27.7409 22.0063C27.4381 21.9306 27.1163 21.8549 26.7945 21.7792C26.4728 21.7035 26.151 21.6277 25.8482 21.552C25.9239 21.4006 25.9239 21.3249 25.9239 21.2492C26.0753 20.6435 26.2267 20.0189 26.3781 19.3943L26.3781 19.3943C26.5295 18.7697 26.681 18.1451 26.8324 17.5394C26.9081 17.388 26.9081 17.3123 26.681 17.2366C25.9239 17.0852 25.2425 16.9337 24.4854 16.7066C24.2582 16.6309 24.1825 16.7066 24.1068 16.9337C23.9554 17.5773 23.804 18.2019 23.6526 18.8265C23.5011 19.4511 23.3497 20.0757 23.1983 20.7192C23.1226 20.9464 23.0469 21.0221 22.8198 20.9464C22.4034 20.8328 21.987 20.7382 21.5706 20.6435L21.5705 20.6435C21.1541 20.5489 20.7377 20.4542 20.3213 20.3407C19.9049 20.2271 19.4885 20.1325 19.0721 20.0378C18.7136 19.9564 18.355 19.8749 17.9965 19.7813ZM21.6841 38.4353C21.7598 38.4353 21.8355 38.511 21.8355 38.511C22.0252 38.5584 22.2167 38.6077 22.4097 38.6574L22.4099 38.6574C23.45 38.925 24.5355 39.2043 25.621 39.2681C26.5295 39.3438 27.3623 39.3438 28.1952 39.041C29.6336 38.5867 30.2393 36.694 29.4065 35.4826C29.028 34.877 28.4223 34.4984 27.8166 34.1199C26.4939 33.385 24.9571 33.0781 23.4833 32.7838L23.3497 32.7571C23.1427 32.6881 23.1244 32.7449 23.0654 32.9274C23.0597 32.9452 23.0536 32.9641 23.0469 32.9842C22.9712 33.3628 22.8765 33.7224 22.7819 34.082L22.7819 34.082C22.6873 34.4416 22.5926 34.8013 22.5169 35.1798C22.3444 35.7837 22.1964 36.3877 22.045 37.0056L22.045 37.0057L22.045 37.0057C21.9307 37.4723 21.8144 37.9468 21.6841 38.4353ZM28.8765 30.5615C28.5737 30.6372 28.1952 30.7129 28.0437 30.7129C27.1651 30.7129 26.4059 30.5934 25.6218 30.47C25.3249 30.4233 25.0244 30.376 24.7125 30.3344C24.5611 30.2965 24.4286 30.2587 24.2961 30.2208C24.1636 30.183 24.0311 30.1451 23.8797 30.1072C23.7283 30.0315 23.6526 29.9558 23.7283 29.8044C24.1825 28.2145 24.5611 26.7003 24.9396 25.1104C25.0153 24.8833 25.0911 24.8076 25.3182 24.8833C25.5437 24.9434 25.7661 25.0005 25.9862 25.0571C26.8747 25.2852 27.7242 25.5034 28.5737 25.8675C29.2551 26.1703 29.9365 26.6246 30.315 27.306C31.0721 28.593 30.315 30.2587 28.8765 30.5615Z" fill="#6172F3"/>
  <path d="M33.832 31.9999C33.832 19.5735 43.9055 9.5 56.332 9.5C68.7583 9.5 78.832 19.5735 78.832 31.9999C78.832 44.4263 68.7584 54.5 56.332 54.5C43.9055 54.5 33.832 44.4264 33.832 31.9999Z" fill="#FCFCFD" stroke="#6172F3" stroke-width="3"/>
  <path d="M56.6995 32.7854L54.2153 41.2101L67.5453 41.2138C68.0015 41.2144 68.3301 41.6495 68.2047 42.0871L67.0588 46.0906C66.9461 46.4823 66.5881 46.753 66.18 46.753L45.7865 46.7468L49.2332 35.0987L45.418 36.2804L46.2352 33.5113L50.0529 32.3286L54.8944 15.9663C55.0062 15.5748 55.3645 15.3048 55.7727 15.3048L60.9371 15.3067C61.3924 15.3079 61.7209 15.7433 61.5964 16.1815L57.5214 30.0104L61.3357 28.8287L60.5188 31.5978L56.6995 32.7854Z" fill="#6172F3"/>
  <circle cx="88.332" cy="32" r="22.5" fill="#FCFCFD" stroke="#6172F3" stroke-width="3"/>
  <path fill-rule="evenodd" clip-rule="evenodd" d="M76.4542 29.9927L88.2069 25.04L99.6033 30.1309L88.1924 12.1237L76.4542 29.9927ZM100.207 35.4909L88.3305 52L76.4542 35.4909L88.1924 42.2909L100.207 35.4909ZM100.403 32.7273L88.5051 27.4546L76.2578 32.6109L88.5051 39.4109L100.403 32.7273Z" fill="#6172F3"/>
  <circle cx="120.332" cy="32" r="22.5" fill="#FCFCFD" stroke="#6172F3" stroke-width="3"/>
  <path fill-rule="evenodd" clip-rule="evenodd" d="M117.062 27.0142L111.077 21.0909H107.29L115.169 28.888C118.021 31.7104 122.645 31.7104 125.496 28.888L133.375 21.0909H129.588L123.603 27.0142C121.797 28.8017 118.868 28.8017 117.062 27.0142ZM133.424 42.7728L125.497 34.9275C122.645 32.1051 118.021 32.1051 115.169 34.9275L107.242 42.7728H111.029L117.063 36.8013C118.869 35.0138 121.797 35.0138 123.603 36.8013L129.637 42.7728H133.424Z" fill="#6172F3"/>
</svg>