<svg
    xmlns="http://www.w3.org/2000/svg"
    width="49"
    height="48"
    viewBox="0 0 49 48"
    fill="none"
  >
  <g clip-path="url(#clip0_152_7290)">
    <path
        d="M6.66602 24C6.66602 26.3638 7.1316 28.7044 8.03618 30.8883C8.94077 33.0722 10.2666 35.0565 11.9381 36.7279C13.6095 38.3994 15.5939 39.7252 17.7777 40.6298C19.9616 41.5344 22.3022 42 24.666 42C27.0298 42 29.3705 41.5344 31.5543 40.6298C33.7382 39.7252 35.7225 38.3994 37.3939 36.7279C39.0654 35.0565 40.3913 33.0722 41.2958 30.8883C42.2004 28.7044 42.666 26.3638 42.666 24C42.666 21.6362 42.2004 19.2956 41.2958 17.1117C40.3913 14.9278 39.0654 12.9435 37.3939 11.2721C35.7225 9.60062 33.7382 8.27475 31.5543 7.37017C29.3705 6.46558 27.0298 6 24.666 6C22.3022 6 19.9616 6.46558 17.7777 7.37017C15.5939 8.27475 13.6095 9.60062 11.9381 11.2721C10.2666 12.9435 8.94077 14.9278 8.03618 17.1117C7.1316 19.2956 6.66602 21.6362 6.66602 24Z"
        stroke="#6172F3"
        stroke-width="4"
        stroke-linecap="round"
        stroke-linejoin="round"
      />
    <path
        d="M18.666 24L22.666 28L30.666 20"
        stroke="#6172F3"
        stroke-width="4"
        stroke-linecap="round"
        stroke-linejoin="round"
      />
  </g>
  <defs>
    <clipPath id="clip0_152_7290">
      <rect
          width="48"
          height="48"
          fill="white"
          transform="translate(0.666016)"
        />
    </clipPath>
  </defs>
</svg>