<svg xmlns="http://www.w3.org/2000/svg" width="32" height="32" viewBox="0 0 32 32" fill="none">
    <path d="M8.50934 7.95725C10.6343 6.25467 13.2771 5.32891 16 5.33325C18.8333 5.33325 21.4373 6.31458 23.4907 7.95725L25.428 6.01992L27.3133 7.90525L25.376 9.84258C26.7863 11.6081 27.6694 13.736 27.9237 15.9812C28.1781 18.2265 27.7933 20.498 26.8137 22.5342C25.8341 24.5705 24.2995 26.2888 22.3864 27.4914C20.4734 28.6939 18.2596 29.332 16 29.332C13.7404 29.332 11.5266 28.6939 9.61359 27.4914C7.70054 26.2888 6.16591 24.5705 5.1863 22.5342C4.20669 20.498 3.82192 18.2265 4.07627 15.9812C4.33061 13.736 5.21373 11.6081 6.62401 9.84258L4.68667 7.90658L6.57201 6.02125L8.50934 7.95858V7.95725ZM17.3333 15.9999V9.99325L10.6667 18.6666H14.6667V24.6666L21.3333 15.9999H17.3333ZM10.6667 1.33325H21.3333V3.99992H10.6667V1.33325Z"
          fill="#F97066"/>
</svg>