<svg
    xmlns="http://www.w3.org/2000/svg"
    width="20"
    height="20"
    viewBox="0 0 20 20"
    fill="none"
  >
  <g clip-path="url(#clip0_2_9871)">
    <path
        d="M14.1667 8.33337L12.5 3.33337"
        stroke="#344054"
        stroke-width="1.66667"
        stroke-linecap="round"
        stroke-linejoin="round"
      />
    <path
      d="M5.8335 8.33337L7.50016 3.33337"
      stroke="#344054"
      stroke-width="1.66667"
      stroke-linecap="round"
      stroke-linejoin="round"
    />
    <path
      d="M8.74985 16.6667H6.03652C5.43935 16.6667 4.86192 16.4529 4.40871 16.064C3.9555 15.6752 3.65646 15.1369 3.56569 14.5467L2.51985 8.58669C2.48333 8.34917 2.49859 8.10657 2.56461 7.87551C2.63062 7.64445 2.74582 7.43039 2.90231 7.24802C3.0588 7.06565 3.25287 6.91928 3.47122 6.81894C3.68958 6.7186 3.92705 6.66666 4.16735 6.66669H15.8332C16.0735 6.66666 16.311 6.7186 16.5293 6.81894C16.7477 6.91928 16.9417 7.06565 17.0982 7.24802C17.2547 7.43039 17.3699 7.64445 17.4359 7.87551C17.5019 8.10657 17.5172 8.34917 17.4807 8.58669L17.3615 9.26752"
      stroke="#344054"
      stroke-width="1.66667"
      stroke-linecap="round"
      stroke-linejoin="round"
    />
    <path
      d="M10.5018 10.0767C10.1687 9.97134 9.81082 9.97333 9.47888 10.0824C9.14693 10.1915 8.85766 10.4021 8.65196 10.6846C8.44625 10.967 8.33452 11.307 8.33255 11.6564C8.33057 12.0058 8.43846 12.347 8.64096 12.6317"
      stroke="#344054"
      stroke-width="1.66667"
      stroke-linecap="round"
      stroke-linejoin="round"
    />
    <path
      d="M14.9999 18.3334L17.7916 15.5967C17.9628 15.4306 18.099 15.2318 18.1921 15.0122C18.2852 14.7926 18.3334 14.5565 18.3338 14.318C18.3342 14.0794 18.2868 13.8432 18.1944 13.6233C18.102 13.4034 17.9664 13.2042 17.7958 13.0375C17.4475 12.697 16.9801 12.5059 16.493 12.5049C16.006 12.504 15.5378 12.6933 15.1883 13.0325L15.0016 13.2159L14.8158 13.0325C14.4676 12.6922 14.0003 12.5013 13.5135 12.5003C13.0266 12.4994 12.5586 12.6886 12.2091 13.0275C12.0379 13.1936 11.9016 13.3923 11.8084 13.6119C11.7152 13.8315 11.667 14.0675 11.6665 14.306C11.666 14.5446 11.7134 14.7808 11.8057 15.0008C11.898 15.2207 12.0335 15.42 12.2041 15.5867L14.9999 18.3334Z"
      stroke="#344054"
      stroke-width="1.66667"
      stroke-linecap="round"
      stroke-linejoin="round"
    />
  </g>
  <defs>
    <clipPath id="clip0_2_9871">
      <rect
        width="20"
        height="20"
        fill="white"
      />
    </clipPath>
  </defs>
</svg>