<svg xmlns="http://www.w3.org/2000/svg" width="22" height="22" viewBox="0 0 22 22" fill="none">
  <circle cx="11" cy="11" r="10.5" fill="#FCFCFD" stroke="#D0D5DD"/>
  <path d="M16.652 9.69566C16.3476 9.69566 15.9708 9.69566 15.3476 9.69566C15.3476 12.0969 13.401 14.0435 10.9998 14.0435C8.59852 14.0435 6.65199 12.0969 6.65199 9.69566C6.23168 9.69566 5.76789 9.69566 5.34766 9.69566C5.34766 12.2822 7.085 14.4629 9.45648 15.1345C9.19648 15.6284 9.23609 16.2503 9.6075 16.7137C10.0953 16.3228 10.6004 15.918 11.0288 15.5748C11.4572 15.9181 11.9623 16.3228 12.4501 16.7137C12.8252 16.2457 12.8621 15.6159 12.5934 15.1196C14.9389 14.4316 16.652 12.2638 16.652 9.69566Z" fill="#6DA544"/>
  <path d="M7.52197 9.26085C7.52197 9.26085 7.52197 11.4348 9.69588 11.4348L10.1306 11.8695H11.0002C11.0002 11.8695 11.435 10.5652 12.3046 10.5652C12.3046 10.5652 12.3046 9.69562 13.1741 9.69562C14.0437 9.69562 14.4785 9.69562 14.4785 9.69562C14.4785 9.69562 14.0437 7.95648 16.2176 6.65214L15.348 6.21738C15.348 6.21738 12.3046 8.39128 10.1306 7.95652V8.82609H9.26107L8.82631 8.39132L7.52197 9.26085Z" fill="#FFDA44"/>
</svg>