<svg
    xmlns="http://www.w3.org/2000/svg"
    width="16"
    height="16"
    viewBox="0 0 16 16"
    fill="none"
  >
  <rect
      width="16"
      height="16"
      rx="8"
      fill="#FF9900"
    />
  <path
      d="M5.18912 3.67833C5.48292 3.75845 5.77671 3.81187 6.0705 3.89199C6.36429 3.97212 6.65809 4.02554 6.95188 4.10566C7.032 4.13237 7.05871 4.10566 7.08542 4.02554C7.19225 3.57149 7.29909 3.14416 7.40592 2.69012C7.43263 2.60999 7.45934 2.58328 7.53946 2.60999C7.80655 2.69012 8.04692 2.74353 8.31401 2.79695C8.39413 2.82366 8.39413 2.85037 8.36742 2.90378C8.26059 3.33112 8.15376 3.78516 8.04692 4.2125C8.04692 4.2392 8.04692 4.26591 8.02021 4.31933C8.23388 4.37275 8.47426 4.42616 8.68792 4.47958C8.71463 4.47958 8.74134 4.42616 8.76805 4.39945C8.84817 4.05224 8.9283 3.73174 9.03513 3.38453C9.06184 3.2777 9.08855 3.17087 9.11526 3.06403C9.11526 3.01062 9.14197 2.98391 9.19538 3.01062C9.46247 3.09074 9.72955 3.14416 10.0233 3.22428C10.0501 3.22428 10.0501 3.25099 10.0768 3.25099C9.99663 3.5982 9.91651 3.9187 9.83638 4.2392C9.80968 4.37275 9.78297 4.50629 9.72955 4.63983C9.70284 4.71995 9.72955 4.74666 9.80968 4.77337C10.1035 4.90691 10.3973 5.04046 10.6911 5.174C10.9581 5.33425 11.1985 5.54791 11.3855 5.815C11.6258 6.21562 11.6526 6.64296 11.5457 7.07029C11.4656 7.36409 11.3588 7.63117 11.1451 7.84484C10.9848 8.00509 10.7712 8.11192 10.5575 8.19205C10.5308 8.19205 10.5041 8.21876 10.4507 8.21876C10.5575 8.29888 10.6643 8.3523 10.7712 8.43242C11.0917 8.6728 11.3053 8.96659 11.4122 9.34051C11.4656 9.6343 11.4389 9.9548 11.3588 10.2486C11.2519 10.6225 11.1184 10.943 10.878 11.2368C10.5842 11.584 10.2103 11.771 9.78297 11.8244C9.22209 11.9045 8.68792 11.8511 8.15376 11.771C8.07363 11.7443 8.02021 11.771 7.99351 11.8511C7.88667 12.2784 7.77984 12.7325 7.673 13.1598C7.6463 13.2666 7.6463 13.2934 7.51275 13.2399C7.27238 13.1865 7.00529 13.1064 6.76492 13.053C6.68479 13.0263 6.68479 12.9996 6.7115 12.9461C6.81834 12.4921 6.92517 12.0381 7.05871 11.6107C7.05871 11.5573 7.08542 11.5306 7.032 11.5039C6.81834 11.4505 6.60467 11.3971 6.36429 11.3436C6.31088 11.584 6.23075 11.8244 6.17733 12.0648C6.12392 12.3051 6.04379 12.5455 5.99038 12.7859C5.96367 12.8393 5.96367 12.866 5.88354 12.8393C5.61646 12.7592 5.34937 12.7058 5.08229 12.6523C5.00216 12.6256 5.00217 12.5989 5.02887 12.5455C5.13571 12.0915 5.24254 11.6374 5.37608 11.2101C5.37608 11.1834 5.40279 11.1567 5.40279 11.1033C4.7885 10.943 4.1742 10.7828 3.5332 10.6225C3.58662 10.5157 3.61333 10.4356 3.66675 10.3287C3.77358 10.0883 3.88041 9.84797 3.96054 9.6343C3.98725 9.55417 4.01395 9.55417 4.09408 9.55417C4.28104 9.60759 4.49471 9.66101 4.68166 9.68772C4.89533 9.74113 5.05558 9.6343 5.08229 9.44734C5.4295 8.08521 5.77671 6.72308 6.09721 5.33425C6.15063 5.12058 6.01708 4.88021 5.77671 4.80008C5.53633 4.71995 5.29596 4.66654 5.08229 4.61312C5.02887 4.61312 5.00217 4.58641 5.02887 4.533C5.109 4.2392 5.18912 3.9187 5.26925 3.62491C5.16242 3.70504 5.16242 3.70504 5.18912 3.67833ZM6.55125 10.2753C6.57796 10.2753 6.60467 10.302 6.60467 10.302C7.032 10.4088 7.48605 10.5424 7.94009 10.5691C8.26059 10.5958 8.55438 10.5958 8.84817 10.489C9.35563 10.3287 9.5693 9.66101 9.27551 9.23367C9.14197 9.02001 8.9283 8.88647 8.71463 8.75292C8.23388 8.48584 7.673 8.37901 7.13884 8.27217C7.05871 8.24546 7.05871 8.27217 7.032 8.3523C6.97859 8.61938 6.89846 8.85976 6.84504 9.12684C6.73821 9.50076 6.65809 9.87468 6.55125 10.2753ZM8.79476 7.55104C8.84817 7.55104 8.98172 7.52434 9.08855 7.49763C9.59601 7.39079 9.86309 6.80321 9.59601 6.34917C9.46247 6.10879 9.22209 5.94854 8.98172 5.84171C8.6078 5.68146 8.23388 5.60133 7.83325 5.4945C7.75313 5.46779 7.72642 5.4945 7.69971 5.57462C7.56617 6.1355 7.43263 6.66967 7.27238 7.23054C7.24567 7.28396 7.27238 7.31067 7.3258 7.33738C7.43263 7.36409 7.51275 7.39079 7.61959 7.4175C8.02021 7.47092 8.36742 7.55104 8.79476 7.55104Z"
      fill="white"
    />
</svg>