<svg xmlns="http://www.w3.org/2000/svg" width="20" height="20" viewBox="0 0 20 20" fill="none">
  <g clip-path="url(#clip0_7_5611)">
    <path d="M2.5 7.50002C2.5 7.27901 2.5878 7.06705 2.74408 6.91076C2.90036 6.75448 3.11232 6.66669 3.33333 6.66669H16.6667C16.8877 6.66669 17.0996 6.75448 17.2559 6.91076C17.4122 7.06705 17.5 7.27901 17.5 7.50002V9.16669C17.5 9.3877 17.4122 9.59966 17.2559 9.75594C17.0996 9.91222 16.8877 10 16.6667 10H3.33333C3.11232 10 2.90036 9.91222 2.74408 9.75594C2.5878 9.59966 2.5 9.3877 2.5 9.16669V7.50002Z" stroke="#6172F3" stroke-width="2" stroke-linecap="round" stroke-linejoin="round"/>
    <path d="M10 6.66669V17.5" stroke="#6172F3" stroke-width="2" stroke-linecap="round" stroke-linejoin="round"/>
    <path d="M15.8327 10V15.8333C15.8327 16.2754 15.6571 16.6993 15.3445 17.0118C15.032 17.3244 14.608 17.5 14.166 17.5H5.83268C5.39065 17.5 4.96673 17.3244 4.65417 17.0118C4.34161 16.6993 4.16602 16.2754 4.16602 15.8333V10" stroke="#6172F3" stroke-width="2" stroke-linecap="round" stroke-linejoin="round"/>
    <path d="M6.24935 6.66667C5.69681 6.66667 5.16691 6.44717 4.77621 6.05647C4.38551 5.66577 4.16602 5.13587 4.16602 4.58333C4.16602 4.0308 4.38551 3.50089 4.77621 3.11019C5.16691 2.71949 5.69681 2.5 6.24935 2.5C7.05325 2.48599 7.84104 2.87605 8.50996 3.6193C9.17889 4.36255 9.69791 5.4245 9.99935 6.66667C10.3008 5.4245 10.8198 4.36255 11.4887 3.6193C12.1577 2.87605 12.9454 2.48599 13.7494 2.5C14.3019 2.5 14.8318 2.71949 15.2225 3.11019C15.6132 3.50089 15.8327 4.0308 15.8327 4.58333C15.8327 5.13587 15.6132 5.66577 15.2225 6.05647C14.8318 6.44717 14.3019 6.66667 13.7494 6.66667" stroke="#6172F3" stroke-width="2" stroke-linecap="round" stroke-linejoin="round"/>
  </g>
  <defs>
    <clipPath id="clip0_7_5611">
      <rect width="20" height="20" fill="white"/>
    </clipPath>
  </defs>
</svg>