<svg
    xmlns="http://www.w3.org/2000/svg"
    width="20"
    height="20"
    viewBox="0 0 20 20"
    fill="none"
  >
  <g clip-path="url(#clip0_2_9905)">
    <path
        d="M6.6665 10C6.6665 10.8841 7.01769 11.7319 7.64281 12.357C8.26794 12.9822 9.11578 13.3334 9.99984 13.3334C10.8839 13.3334 11.7317 12.9822 12.3569 12.357C12.982 11.7319 13.3332 10.8841 13.3332 10C13.3332 9.11597 12.982 8.26812 12.3569 7.643C11.7317 7.01788 10.8839 6.66669 9.99984 6.66669C9.11578 6.66669 8.26794 7.01788 7.64281 7.643C7.01769 8.26812 6.6665 9.11597 6.6665 10Z"
        stroke="#344054"
        stroke-width="1.66667"
        stroke-linecap="round"
        stroke-linejoin="round"
      />
    <path
        d="M2.5 10C2.5 10.9849 2.69399 11.9602 3.0709 12.8702C3.44781 13.7801 4.00026 14.6069 4.6967 15.3033C5.39314 15.9998 6.21993 16.5522 7.12987 16.9291C8.03982 17.306 9.01509 17.5 10 17.5C10.9849 17.5 11.9602 17.306 12.8701 16.9291C13.7801 16.5522 14.6069 15.9998 15.3033 15.3033C15.9997 14.6069 16.5522 13.7801 16.9291 12.8702C17.306 11.9602 17.5 10.9849 17.5 10C17.5 9.01512 17.306 8.03985 16.9291 7.1299C16.5522 6.21996 15.9997 5.39317 15.3033 4.69673C14.6069 4.00029 13.7801 3.44784 12.8701 3.07093C11.9602 2.69402 10.9849 2.50003 10 2.50003C9.01509 2.50003 8.03982 2.69402 7.12987 3.07093C6.21993 3.44784 5.39314 4.00029 4.6967 4.69673C4.00026 5.39317 3.44781 6.21996 3.0709 7.1299C2.69399 8.03985 2.5 9.01512 2.5 10Z"
        stroke="#344054"
        stroke-width="1.66667"
        stroke-linecap="round"
        stroke-linejoin="round"
      />
    <path
        d="M12.5 12.5L15.2917 15.2917"
        stroke="#344054"
        stroke-width="1.66667"
        stroke-linecap="round"
        stroke-linejoin="round"
      />
    <path
        d="M7.50016 12.5L4.7085 15.2917"
        stroke="#344054"
        stroke-width="1.66667"
        stroke-linecap="round"
        stroke-linejoin="round"
      />
    <path
        d="M4.7085 4.70837L7.50016 7.50004"
        stroke="#344054"
        stroke-width="1.66667"
        stroke-linecap="round"
        stroke-linejoin="round"
      />
    <path
        d="M15.2917 4.70837L12.5 7.50004"
        stroke="#344054"
        stroke-width="1.66667"
        stroke-linecap="round"
        stroke-linejoin="round"
      />
  </g>
  <defs>
    <clipPath id="clip0_2_9905">
      <rect
          width="20"
          height="20"
          fill="white"
        />
    </clipPath>
  </defs>
</svg>