<svg
    xmlns="http://www.w3.org/2000/svg"
    width="49"
    height="48"
    viewBox="0 0 49 48"
    fill="none"
  >
  <g clip-path="url(#clip0_152_7277)">
    <path
        d="M18.334 28C18.334 31.314 23.706 34 30.334 34C36.962 34 42.334 31.314 42.334 28C42.334 24.686 36.962 22 30.334 22C23.706 22 18.334 24.686 18.334 28Z"
        stroke="#6172F3"
        stroke-width="4"
        stroke-linecap="round"
        stroke-linejoin="round"
      />
    <path
        d="M18.334 28V36C18.334 39.312 23.706 42 30.334 42C36.962 42 42.334 39.312 42.334 36V28"
        stroke="#6172F3"
        stroke-width="4"
        stroke-linecap="round"
        stroke-linejoin="round"
      />
    <path
        d="M6.33398 12C6.33398 14.144 8.62198 16.124 12.334 17.196C16.046 18.268 20.622 18.268 24.334 17.196C28.046 16.124 30.334 14.144 30.334 12C30.334 9.856 28.046 7.876 24.334 6.804C20.622 5.732 16.046 5.732 12.334 6.804C8.62198 7.876 6.33398 9.856 6.33398 12Z"
        stroke="#6172F3"
        stroke-width="4"
        stroke-linecap="round"
        stroke-linejoin="round"
      />
    <path
        d="M6.33398 12V32C6.33398 33.776 7.87798 34.9 10.334 36"
        stroke="#6172F3"
        stroke-width="4"
        stroke-linecap="round"
        stroke-linejoin="round"
      />
    <path
        d="M6.33398 22C6.33398 23.776 7.87798 24.9 10.334 26"
        stroke="#6172F3"
        stroke-width="4"
        stroke-linecap="round"
        stroke-linejoin="round"
      />
  </g>
  <defs>
    <clipPath id="clip0_152_7277">
      <rect
          width="48"
          height="48"
          fill="white"
          transform="translate(0.333984)"
        />
    </clipPath>
  </defs>
</svg>