<svg xmlns="http://www.w3.org/2000/svg" width="20" height="20" viewBox="0 0 20 20" fill="none">
    <g clip-path="url(#clip0_213_10684)">
        <path d="M4.16699 17.5V4.16667C4.16699 3.72464 4.34259 3.30072 4.65515 2.98816C4.96771 2.67559 5.39163 2.5 5.83366 2.5H14.167C14.609 2.5 15.0329 2.67559 15.3455 2.98816C15.6581 3.30072 15.8337 3.72464 15.8337 4.16667V17.5L13.3337 15.8333L11.667 17.5L10.0003 15.8333L8.33366 17.5L6.66699 15.8333L4.16699 17.5Z"
              stroke="#F6FEF9" stroke-width="1.33" stroke-linecap="round" stroke-linejoin="round"/>
        <path d="M11.6663 6.66666H9.58301C9.25149 6.66666 8.93354 6.79835 8.69912 7.03277C8.4647 7.26719 8.33301 7.58514 8.33301 7.91666C8.33301 8.24818 8.4647 8.56612 8.69912 8.80054C8.93354 9.03496 9.25149 9.16666 9.58301 9.16666H10.4163C10.7479 9.16666 11.0658 9.29835 11.3002 9.53277C11.5346 9.76719 11.6663 10.0851 11.6663 10.4167C11.6663 10.7482 11.5346 11.0661 11.3002 11.3005C11.0658 11.535 10.7479 11.6667 10.4163 11.6667H8.33301M9.99967 11.6667V12.9167M9.99967 5.41666V6.66666"
              stroke="#F6FEF9" stroke-width="1.33" stroke-linecap="round" stroke-linejoin="round"/>
    </g>
    <defs>
        <clipPath id="clip0_213_10684">
            <rect width="20" height="20" fill="white"/>
        </clipPath>
    </defs>
</svg>