<svg
    width="8"
    height="6"
    viewBox="0 0 8 6"
    fill="none"
    xmlns="http://www.w3.org/2000/svg"
  >
  <path
      d="M7.33322 3.94L4.47322 1.11334C4.41124 1.05085 4.33751 1.00125 4.25627 0.967409C4.17503 0.933563 4.08789 0.916138 3.99988 0.916138C3.91188 0.916138 3.82474 0.933563 3.7435 0.967409C3.66226 1.00125 3.58853 1.05085 3.52655 1.11334L0.699884 3.94C0.637399 4.00198 0.587802 4.07571 0.553957 4.15695C0.520111 4.23819 0.502686 4.32533 0.502686 4.41334C0.502686 4.50134 0.520111 4.58848 0.553957 4.66972C0.587802 4.75096 0.637399 4.82469 0.699884 4.88667C0.824793 5.01084 0.993761 5.08053 1.16988 5.08053C1.34601 5.08053 1.51498 5.01084 1.63988 4.88667L3.99988 2.52667L6.35988 4.88667C6.48406 5.00983 6.65166 5.07927 6.82655 5.08C6.91429 5.08051 7.00126 5.06369 7.08249 5.03052C7.16371 4.99734 7.23759 4.94846 7.29988 4.88667C7.3646 4.82692 7.41684 4.75495 7.45357 4.6749C7.49031 4.59485 7.51082 4.50831 7.51392 4.42029C7.51702 4.33226 7.50265 4.2445 7.47163 4.16206C7.44062 4.07963 7.39357 4.00415 7.33322 3.94Z"
      fill="#101323"
    />
</svg>