<svg xmlns="http://www.w3.org/2000/svg" width="20" height="20" viewBox="0 0 20 20" fill="none">
    <g clip-path="url(#clip0_213_8112)">
        <path d="M14.1667 8.33334L12.5 3.33334" stroke="#667085" stroke-width="1.5" stroke-linecap="round"
              stroke-linejoin="round"/>
        <path d="M5.83331 8.33334L7.49998 3.33334" stroke="#667085" stroke-width="1.5" stroke-linecap="round"
              stroke-linejoin="round"/>
        <path d="M12.5 16.6667H6.03664C5.43948 16.6666 4.86204 16.4529 4.40883 16.064C3.95563 15.6751 3.65658 15.1369 3.56581 14.5467L2.51998 8.58666C2.48345 8.34915 2.49872 8.10655 2.56473 7.87549C2.63074 7.64442 2.74594 7.43037 2.90243 7.248C3.05892 7.06563 3.25299 6.91926 3.47135 6.81891C3.6897 6.71857 3.92717 6.66664 4.16748 6.66666H15.8333C16.0736 6.66664 16.3111 6.71857 16.5294 6.81891C16.7478 6.91926 16.9419 7.06563 17.0984 7.248C17.2548 7.43037 17.37 7.64442 17.4361 7.87549C17.5021 8.10655 17.5173 8.34915 17.4808 8.58666L17.1808 10.2992"
              stroke="#667085" stroke-width="1.5" stroke-linecap="round" stroke-linejoin="round"/>
        <path d="M8.33331 11.6667C8.33331 12.1087 8.50891 12.5326 8.82147 12.8452C9.13403 13.1577 9.55795 13.3333 9.99998 13.3333C10.442 13.3333 10.8659 13.1577 11.1785 12.8452C11.4911 12.5326 11.6666 12.1087 11.6666 11.6667C11.6666 11.2246 11.4911 10.8007 11.1785 10.4882C10.8659 10.1756 10.442 10 9.99998 10C9.55795 10 9.13403 10.1756 8.82147 10.4882C8.50891 10.8007 8.33331 11.2246 8.33331 11.6667Z"
              stroke="#667085" stroke-width="1.5" stroke-linecap="round" stroke-linejoin="round"/>
        <path d="M15.8333 13.3333V15.8333" stroke="#667085" stroke-width="1.5" stroke-linecap="round"
              stroke-linejoin="round"/>
        <path d="M15.8333 18.3333V18.3417" stroke="#667085" stroke-width="1.5" stroke-linecap="round"
              stroke-linejoin="round"/>
    </g>
    <defs>
        <clipPath id="clip0_213_8112">
            <rect width="20" height="20" fill="white"/>
        </clipPath>
    </defs>
</svg>