<svg
    xmlns="http://www.w3.org/2000/svg"
    width="16"
    height="16"
    viewBox="0 0 16 16"
  fill="none"
>
  <path
    fill-rule="evenodd"
    clip-rule="evenodd"
    d="M2.31261 5.49998C2.72942 6.22192 3.49972 6.66666 4.33334 6.66666C5.622 6.66666 6.66667 5.62198 6.66667 4.3333C6.66667 3.04462 5.622 1.99994 4.33334 1.99994C3.49972 1.99994 2.72942 2.44467 2.31261 3.16662C1.8958 3.88856 1.8958 4.77803 2.31261 5.49998ZM11.6668 14.0001C10.3782 14.0001 9.3335 12.9554 9.3335 11.6668C9.3335 10.3781 10.3782 9.33344 11.6668 9.33344C12.9555 9.33344 14.0002 10.3781 14.0002 11.6668C14.0002 12.9554 12.9555 14.0001 11.6668 14.0001ZM11.6665 12.667C12.2188 12.667 12.6665 12.2192 12.6665 11.6669C12.6665 11.1147 12.2188 10.6669 11.6665 10.6669C11.1142 10.6669 10.6665 11.1147 10.6665 11.6669C10.6665 12.2192 11.1142 12.667 11.6665 12.667ZM4.3335 5.33334C4.88578 5.33334 5.3335 4.88565 5.3335 4.33339C5.3335 3.78113 4.88578 3.33344 4.3335 3.33344C3.78121 3.33344 3.3335 3.78113 3.3335 4.33339C3.3335 4.88565 3.78121 5.33334 4.3335 5.33334ZM13.6567 3.28587L12.714 2.3432H12.7133L2.34399 12.7139L3.28666 13.6565L13.6567 3.28587Z"
    fill="#667085"
  />
</svg>