<svg xmlns="http://www.w3.org/2000/svg" width="20" height="20" viewBox="0 0 20 20" fill="none">
    <path fill-rule="evenodd" clip-rule="evenodd"
          d="M11.6667 1.66666C14.8091 1.66516 17.5259 3.85831 18.1872 6.93039C18.8485 10.0025 17.2748 13.1192 14.41 14.4108C13.1883 17.1118 10.3298 18.6817 7.39502 18.2633C4.46023 17.845 2.15423 15.539 1.73588 12.6042C1.31753 9.66937 2.88735 6.81088 5.58836 5.58916C6.66773 3.20092 9.04585 1.66626 11.6667 1.66666ZM8.33344 6.66667C6.54711 6.66667 4.89647 7.61966 4.00331 9.16667C3.11014 10.7137 3.11014 12.6197 4.00331 14.1667C4.89647 15.7137 6.54711 16.6667 8.33344 16.6667C11.0949 16.6667 13.3334 14.4281 13.3334 11.6667C13.3334 8.90524 11.0949 6.66667 8.33344 6.66667ZM7.92999 5.01083C8.87789 3.94241 10.2384 3.33166 11.6667 3.33333C13.7423 3.33357 15.602 4.61624 16.3397 6.55643C17.0773 8.49662 16.5396 10.6908 14.9883 12.07C15.1042 10.1648 14.3979 8.30125 13.0483 6.95148C11.6987 5.60171 9.83524 4.89517 7.92999 5.01083Z"
          fill="#667085"/>
</svg>