<svg
    width="24"
    height="24"
    viewBox="0 0 24 24"
    fill="none"
    xmlns="http://www.w3.org/2000/svg"
  >
  <g clip-path="url(#clip0_58_4254)">
    <path
        d="M12 23C5.9247 23 1 18.0753 1 12C1 5.9247 5.9247 1 12 1C18.0753 1 23 5.9247 23 12C23 18.0753 18.0753 23 12 23ZM8.579 13.287L8.5933 13.2793L9.5503 16.4363C9.6735 16.7784 9.8429 16.84 10.0486 16.8114C10.2554 16.7839 10.3643 16.6728 10.4996 16.543L11.8064 15.2802L14.6114 17.357C15.124 17.6397 15.4925 17.4934 15.6201 16.8818L17.4428 8.2776C17.6441 7.4768 17.2921 7.1556 16.6706 7.4108L5.9643 11.5468C5.2339 11.8394 5.2383 12.2486 5.8323 12.4301L8.579 13.2881V13.287Z"
        fill="#6172F3"
      />
  </g>
  <defs>
    <clipPath id="clip0_58_4254">
      <rect
          width="24"
          height="24"
          fill="white"
        />
    </clipPath>
  </defs>
</svg>