<svg
    width="78"
    height="24"
    viewBox="0 0 78 24"
    fill="none"
    xmlns="http://www.w3.org/2000/svg"
  >
  <path
      d="M9.59227 3.65185C10.1625 3.94288 10.3891 4.63985 10.0992 5.21064L2.18921 20.7664C1.89925 21.3355 1.20335 21.5621 0.63417 21.2727L0.632559 21.2722C0.0628448 20.9811 -0.163752 20.2836 0.126206 19.7128L8.03562 4.15713C8.32558 3.58795 9.02148 3.36135 9.59066 3.65077L9.59227 3.65185ZM11.266 9.26254C11.8357 9.55357 12.0628 10.2511 11.7723 10.8219L6.71578 20.7664C6.42582 21.3355 5.72992 21.5621 5.16074 21.2727L5.15913 21.2722C4.58942 20.9811 4.36282 20.2836 4.65278 19.7128L9.70933 9.76835C9.99928 9.19918 10.6952 8.97258 11.2644 9.262L11.266 9.26254ZM13.5379 13.889C14.107 14.18 14.3342 14.8781 14.0437 15.4483L11.3395 20.7664C11.0501 21.3355 10.3542 21.5621 9.78504 21.2727L9.78343 21.2722C9.21318 20.9811 8.98658 20.2836 9.27654 19.7128L11.9807 14.3948C12.2706 13.8256 12.9665 13.599 13.5357 13.8884L13.5379 13.889Z"
      fill="#37C5D3"
    />
  <path
      d="M9.15157 0.00698047C9.79217 0.0220153 10.2996 0.552532 10.2851 1.19151C10.0843 9.98315 16.1106 17.8158 24.8045 19.8229C25.429 19.9668 25.8183 20.5892 25.6744 21.2121C25.5305 21.8349 24.9081 22.2232 24.2836 22.0787C14.512 19.8229 7.73991 11.0211 7.96543 1.13674C7.97993 0.497762 8.51098 -0.00859136 9.15157 0.00698047ZM13.1353 0.00322176C13.7759 0.0187936 14.2828 0.550384 14.2677 1.18937C14.1131 7.74135 18.6107 13.9389 24.8168 15.3715C25.4408 15.5154 25.8306 16.1378 25.6867 16.7607C25.5428 17.3835 24.9199 17.7718 24.296 17.6278C16.9842 15.9396 11.7687 8.75244 11.9486 1.13245C11.9636 0.493466 12.4952 -0.0123501 13.1353 0.00322176ZM17.1313 0C17.7714 0 18.2912 0.51924 18.2912 1.15822C18.2933 5.39752 21.558 10.0653 25.1417 11.3084C25.7468 11.5189 26.0674 12.1782 25.8575 12.7823C25.648 13.3864 24.9871 13.7054 24.3819 13.4959C19.8569 11.9259 15.9736 6.37478 15.9715 1.15769C15.9715 0.517629 16.4902 0 17.1313 0Z"
      fill="#FFB900"
    />
  <path
      d="M33.61 21.2796C34.5837 21.2796 35.3282 20.9073 35.8294 20.2343L35.858 20.2486V21.165H37.3902V14.1774H35.7865V15.0222L35.7578 15.0365C35.2567 14.4065 34.4834 14.0771 33.5957 14.0771C31.6769 14.0771 30.2307 15.5949 30.2307 17.6998C30.2307 19.862 31.6769 21.2796 33.61 21.2796ZM33.8677 19.819C32.6792 19.819 31.8631 18.9456 31.8631 17.7141C31.8631 16.3682 32.7508 15.5233 33.8677 15.5233C35.0132 15.5233 35.858 16.4684 35.858 17.7141C35.858 18.9742 34.956 19.819 33.8677 19.819ZM41.1131 21.165V10.6263H39.5094V21.165H41.1131ZM45.1653 21.165V15.5377H46.8836V14.1774H45.1653V13.0748C45.1653 12.3159 45.4231 11.9866 45.9099 11.9866C46.2106 11.9866 46.6116 12.1298 47.0698 12.3445L47.4277 10.9986C47.0554 10.7551 46.4541 10.5117 45.6808 10.5117C44.3062 10.5117 43.5616 11.3422 43.5616 12.903V14.1774H42.7884V15.5377H43.5616V21.165H45.1653ZM51.165 21.2796C52.1387 21.2796 52.8833 20.9073 53.3844 20.2343L53.4131 20.2486V21.165H54.9452V14.1774H53.3415V15.0222L53.3128 15.0365C52.8117 14.4065 52.0384 14.0771 51.1507 14.0771C49.2319 14.0771 47.7857 15.5949 47.7857 17.6998C47.7857 19.862 49.2319 21.2796 51.165 21.2796ZM51.4227 19.819C50.2342 19.819 49.4181 18.9456 49.4181 17.7141C49.4181 16.3682 50.3058 15.5233 51.4227 15.5233C52.5682 15.5233 53.4131 16.4684 53.4131 17.7141C53.4131 18.9742 52.511 19.819 51.4227 19.819ZM59.0404 21.2796C59.9568 21.2796 60.4007 21.0934 60.8159 20.8643L60.4007 19.4754C60.0284 19.6758 59.6418 19.7761 59.3697 19.7761C58.9115 19.7761 58.6967 19.5183 58.6967 18.8024V15.5377H60.7443V14.1774H58.6967V11.6859L57.093 11.8577V14.1774H56.2339V15.5377H57.093V18.9599C57.093 20.5206 57.8376 21.2796 59.0404 21.2796ZM65.4409 21.2796C67.5888 21.2796 69.1066 19.8047 69.1066 17.6855C69.1066 15.5377 67.5888 14.0771 65.4409 14.0771C63.2358 14.0771 61.7753 15.6236 61.7753 17.6855C61.7753 19.7331 63.2358 21.2796 65.4409 21.2796ZM65.4409 19.819C64.2382 19.819 63.4077 18.874 63.4077 17.6855C63.4077 16.4684 64.2238 15.5233 65.4409 15.5233C66.5865 15.5233 67.4742 16.3968 67.4742 17.6855C67.4742 18.9456 66.5721 19.819 65.4409 19.819ZM72.3856 24.0001V20.3202L72.4143 20.3059C72.9297 20.9359 73.66 21.2796 74.6051 21.2796C76.5524 21.2796 77.9986 19.862 77.9986 17.6998C77.9986 15.5949 76.5524 14.0771 74.6194 14.0771C73.703 14.0771 72.9297 14.4065 72.4143 15.0079H72.3856V14.1774H70.7819V24.0001H72.3856ZM74.3616 19.819C73.2161 19.819 72.314 18.9742 72.314 17.7141C72.314 16.4684 73.1445 15.5233 74.3473 15.5233C75.4642 15.5233 76.3663 16.3682 76.3663 17.7141C76.3663 18.9456 75.5358 19.819 74.3616 19.819Z"
      fill="#667085"
    />
</svg>