<svg width="64" height="64" viewBox="0 0 64 64" fill="none" xmlns="http://www.w3.org/2000/svg">
    <path d="M32 64C49.6731 64 64 49.6731 64 32C64 14.3269 49.6731 0 32 0C14.3269 0 0 14.3269 0 32C0 49.6731 14.3269 64 32 64Z"
          fill="#F2F4F7"/>
    <g clip-path="url(#clip0_254_24513)">
        <path d="M26.9999 20.3333H23.6666C22.7825 20.3333 21.9347 20.6845 21.3096 21.3096C20.6844 21.9348 20.3333 22.7826 20.3333 23.6667V43.6667C20.3333 44.5507 20.6844 45.3986 21.3096 46.0237C21.9347 46.6488 22.7825 47 23.6666 47H40.3333C41.2173 47 42.0652 46.6488 42.6903 46.0237C43.3154 45.3986 43.6666 44.5507 43.6666 43.6667V23.6667C43.6666 22.7826 43.3154 21.9348 42.6903 21.3096C42.0652 20.6845 41.2173 20.3333 40.3333 20.3333H36.9999"
              stroke="#667085" stroke-width="2" stroke-linecap="round" stroke-linejoin="round"/>
        <path d="M27 20.3333C27 19.4493 27.3512 18.6014 27.9763 17.9763C28.6014 17.3512 29.4493 17 30.3333 17H33.6667C34.5507 17 35.3986 17.3512 36.0237 17.9763C36.6488 18.6014 37 19.4493 37 20.3333C37 21.2174 36.6488 22.0652 36.0237 22.6904C35.3986 23.3155 34.5507 23.6667 33.6667 23.6667H30.3333C29.4493 23.6667 28.6014 23.3155 27.9763 22.6904C27.3512 22.0652 27 21.2174 27 20.3333Z"
              stroke="#667085" stroke-width="2" stroke-linecap="round" stroke-linejoin="round"/>
        <path d="M28.6667 32L35.3334 38.6667M35.3334 32L28.6667 38.6667" stroke="#667085" stroke-width="2"
              stroke-linecap="round" stroke-linejoin="round"/>
    </g>
    <defs>
        <clipPath id="clip0_254_24513">
            <rect width="40" height="40" fill="white" transform="translate(12 12)"/>
        </clipPath>
    </defs>
</svg>
