<svg xmlns="http://www.w3.org/2000/svg" width="25" height="24" viewBox="0 0 25 24" fill="none">
    <path d="M6.17169 4.43301C8.01474 2.86067 10.3726 1.99666 12.8114 2.00001C18.4211 2.00001 22.9684 6.47701 22.9684 12C22.9684 14.136 22.2879 16.116 21.13 17.74L17.8899 12H20.937C20.9371 10.4316 20.469 8.89781 19.5908 7.58927C18.7127 6.28072 17.4632 5.25517 15.9978 4.64013C14.5324 4.0251 12.9157 3.84771 11.3487 4.13003C9.78171 4.41234 8.33357 5.14191 7.18434 6.22801L6.17169 4.43301ZM19.451 19.567C17.608 21.1394 15.2501 22.0034 12.8114 22C7.20161 22 2.6543 17.523 2.6543 12C2.6543 9.86401 3.33482 7.88401 4.49272 6.26001L7.73283 12H4.68571C4.68558 13.5684 5.1537 15.1022 6.03186 16.4108C6.91002 17.7193 8.15949 18.7449 9.6249 19.3599C11.0903 19.9749 12.707 20.1523 14.274 19.87C15.841 19.5877 17.2891 18.8581 18.4384 17.772L19.451 19.567Z"
          fill="#6172F3"/>
</svg>