<svg xmlns="http://www.w3.org/2000/svg" width="16" height="16" viewBox="0 0 16 16" fill="none">
    <g clip-path="url(#clip0_6_13630)">
        <path d="M2 2L14 14" stroke="#344054" stroke-linecap="round" stroke-linejoin="round"/>
        <path d="M12.0001 9.33333L13.0001 8.38133C13.3274 8.05988 13.5848 7.67434 13.7562 7.24883C13.9276 6.82333 14.0094 6.36702 13.9963 5.90847C13.9833 5.44992 13.8757 4.999 13.6804 4.58393C13.4851 4.16885 13.2062 3.79857 12.8612 3.49624C12.5161 3.19391 12.1124 2.96605 11.6753 2.82693C11.2382 2.6878 10.777 2.64039 10.3207 2.68768C9.86446 2.73496 9.42284 2.87592 9.02353 3.10173C8.62422 3.32755 8.27582 3.63335 8.00013 4C7.36679 3.15133 6.37346 2.66666 5.33346 2.66666M10.6668 10.6667L8.00013 13.3333L3.00013 8.38133C2.55911 7.95227 2.24546 7.40953 2.09391 6.81319C1.94236 6.21686 1.95881 5.59022 2.14146 5.00266C2.35246 4.33427 2.76975 3.74987 3.33346 3.33333"
              stroke="#344054" stroke-linecap="round" stroke-linejoin="round"/>
    </g>
    <defs>
        <clipPath id="clip0_6_13630">
            <rect width="16" height="16" fill="white"/>
        </clipPath>
    </defs>
</svg>