<svg
    width="104"
    height="32"
    viewBox="0 0 104 32"
    fill="none"
    xmlns="http://www.w3.org/2000/svg"
  >
  <path
      d="M12.7897 4.8691C13.5501 5.25715 13.8522 6.18645 13.4656 6.9475L2.91895 27.6885C2.53234 28.4474 1.60447 28.7495 0.845562 28.3636L0.843414 28.3629C0.0837932 27.9749 -0.218337 27.0449 0.168275 26.2838L10.7142 5.54281C11.1008 4.78391 12.0287 4.48178 12.7876 4.86767L12.7897 4.8691ZM15.0213 12.35C15.7809 12.7381 16.0838 13.6681 15.6965 14.4292L8.95439 27.6885C8.56778 28.4474 7.63991 28.7495 6.881 28.3636L6.87885 28.3629C6.11923 27.9749 5.8171 27.0449 6.20372 26.2838L12.9458 13.0245C13.3324 12.2656 14.2603 11.9634 15.0192 12.3493L15.0213 12.35ZM18.0505 18.5186C18.8094 18.9067 19.1123 19.8374 18.7249 20.5978L15.1194 27.6885C14.7335 28.4474 13.8056 28.7495 13.0467 28.3636L13.0446 28.3629C12.2843 27.9749 11.9821 27.0449 12.3687 26.2838L15.9743 19.1931C16.3609 18.4342 17.2887 18.132 18.0476 18.5179L18.0505 18.5186Z"
      fill="#37C5D3"
    />
  <path
      d="M12.2021 0.0092768C13.0562 0.0293233 13.7328 0.73668 13.7135 1.58866C13.4457 13.3109 21.4808 23.7544 33.0727 26.4306C33.9053 26.6225 34.4244 27.4523 34.2325 28.2828C34.0407 29.1133 33.2109 29.6309 32.3782 29.4383C19.3494 26.4306 10.3199 14.6948 10.6206 1.51563C10.6399 0.663653 11.348 -0.0114857 12.2021 0.0092768ZM17.5137 0.00426517C18.3678 0.0250277 19.0437 0.733816 19.0237 1.58579C18.8175 10.3218 24.8142 18.5853 33.0892 20.4954C33.9211 20.6873 34.4409 21.5171 34.249 22.3476C34.0571 23.1781 33.2266 23.6957 32.3947 23.5038C22.6456 21.2529 15.6916 11.6699 15.9315 1.5099C15.9515 0.657925 16.6603 -0.0164973 17.5137 0.00426517ZM22.8418 -3.05176e-05C23.6952 -3.05176e-05 24.3882 0.692291 24.3882 1.54427C24.3911 7.19668 28.7441 13.4204 33.5223 15.0778C34.3292 15.3585 34.7566 16.2377 34.4767 17.0431C34.1974 17.8485 33.3161 18.2738 32.5092 17.9946C26.476 15.9012 21.2982 8.4997 21.2954 1.54355C21.2954 0.690143 21.987 -3.05176e-05 22.8418 -3.05176e-05Z"
      fill="#FFB900"
    />
  <path
      d="M44.8128 28.3726C46.1111 28.3726 47.1039 27.8762 47.7721 26.9789L47.8103 26.9979V28.2198H49.8531V18.903H47.7148V20.0294L47.6766 20.0485C47.0084 19.2084 45.9774 18.7693 44.7937 18.7693C42.2354 18.7693 40.3071 20.7931 40.3071 23.5996C40.3071 26.4825 42.2354 28.3726 44.8128 28.3726ZM45.1565 26.4252C43.5718 26.4252 42.4836 25.2606 42.4836 23.6187C42.4836 21.824 43.6673 20.6976 45.1565 20.6976C46.6838 20.6976 47.8103 21.9577 47.8103 23.6187C47.8103 25.2988 46.6075 26.4252 45.1565 26.4252ZM54.817 28.2198V14.1682H52.6787V28.2198H54.817ZM60.22 28.2198V20.7167H62.5111V18.903H60.22V17.4329C60.22 16.421 60.5637 15.9819 61.2128 15.9819C61.6137 15.9819 62.1483 16.1728 62.7592 16.4592L63.2365 14.6646C62.7402 14.34 61.9383 14.0154 60.9073 14.0154C59.0745 14.0154 58.0817 15.1228 58.0817 17.2038V18.903H57.0508V20.7167H58.0817V28.2198H60.22ZM68.2195 28.3726C69.5178 28.3726 70.5106 27.8762 71.1788 26.9789L71.217 26.9979V28.2198H73.2598V18.903H71.1215V20.0294L71.0833 20.0485C70.4151 19.2084 69.3841 18.7693 68.2004 18.7693C65.6421 18.7693 63.7138 20.7931 63.7138 23.5996C63.7138 26.4825 65.6421 28.3726 68.2195 28.3726ZM68.5632 26.4252C66.9786 26.4252 65.8903 25.2606 65.8903 23.6187C65.8903 21.824 67.074 20.6976 68.5632 20.6976C70.0906 20.6976 71.217 21.9577 71.217 23.6187C71.217 25.2988 70.0142 26.4252 68.5632 26.4252ZM78.7201 28.3726C79.942 28.3726 80.5338 28.1244 81.0875 27.8189L80.5338 25.967C80.0375 26.2343 79.522 26.3679 79.1592 26.3679C78.5483 26.3679 78.2619 26.0243 78.2619 25.0697V20.7167H80.9921V18.903H78.2619V15.581L76.1236 15.8101V18.903H74.9781V20.7167H76.1236V25.2797C76.1236 27.3607 77.1164 28.3726 78.7201 28.3726ZM87.2542 28.3726C90.118 28.3726 92.1417 26.4061 92.1417 23.5805C92.1417 20.7167 90.118 18.7693 87.2542 18.7693C84.3141 18.7693 82.3667 20.8312 82.3667 23.5805C82.3667 26.3106 84.3141 28.3726 87.2542 28.3726ZM87.2542 26.4252C85.6505 26.4252 84.5432 25.1651 84.5432 23.5805C84.5432 21.9577 85.6314 20.6976 87.2542 20.6976C88.7816 20.6976 89.9653 21.8622 89.9653 23.5805C89.9653 25.2606 88.7625 26.4252 87.2542 26.4252ZM96.5138 32V27.0934L96.552 27.0743C97.2393 27.9144 98.213 28.3726 99.4731 28.3726C102.07 28.3726 103.998 26.4825 103.998 23.5996C103.998 20.7931 102.07 18.7693 99.4921 18.7693C98.2703 18.7693 97.2393 19.2084 96.552 20.0103H96.5138V18.903H94.3755V32H96.5138ZM99.1485 26.4252C97.6211 26.4252 96.4183 25.2988 96.4183 23.6187C96.4183 21.9577 97.5257 20.6976 99.1294 20.6976C100.619 20.6976 101.821 21.824 101.821 23.6187C101.821 25.2606 100.714 26.4252 99.1485 26.4252Z"
      fill="#111828"
    />
</svg>