<svg
    xmlns="http://www.w3.org/2000/svg"
    width="16"
    height="16"
    viewBox="0 0 16 16"
    fill="none"
  >
  <g clip-path="url(#clip0_360_7865)">
    <path
        d="M2 4.66664L7.63 0.913308C7.73955 0.840216 7.8683 0.801208 8 0.801208C8.1317 0.801208 8.26045 0.840216 8.37 0.913308L14 4.66664V14C14 14.1768 13.9298 14.3464 13.8047 14.4714C13.6797 14.5964 13.5101 14.6666 13.3333 14.6666H2.66667C2.48986 14.6666 2.32029 14.5964 2.19526 14.4714C2.07024 14.3464 2 14.1768 2 14V4.66664ZM3.33333 5.37997V13.3333H12.6667V5.37997L8 2.26931L3.33333 5.37997ZM5.33333 10.6666H10.6667V12H5.33333V10.6666ZM5.33333 8.66664H10.6667V9.99998H5.33333V8.66664ZM8 7.33331C7.64638 7.33331 7.30724 7.19283 7.05719 6.94278C6.80714 6.69274 6.66667 6.3536 6.66667 5.99998C6.66667 5.64635 6.80714 5.30721 7.05719 5.05717C7.30724 4.80712 7.64638 4.66664 8 4.66664C8.35362 4.66664 8.69276 4.80712 8.94281 5.05717C9.19286 5.30721 9.33333 5.64635 9.33333 5.99998C9.33333 6.3536 9.19286 6.69274 8.94281 6.94278C8.69276 7.19283 8.35362 7.33331 8 7.33331Z"
        fill="#667085"
      />
  </g>
  <defs>
    <clipPath id="clip0_360_7865">
      <rect
          width="16"
          height="16"
          fill="white"
        />
    </clipPath>
  </defs>
</svg>