<svg id="Capa_1" enable-background="new 0 0 512 512" height="512" viewBox="0 0 512 512" width="512" xmlns="http://www.w3.org/2000/svg"><g><g><g><path d="m454.472 41.722h-396.944c-31.767 0-57.528 26.06-57.528 58.195v233.942c0 32.135 25.761 58.194 57.528 58.194h145.028l-14.497 57.194c-3.797 14.979 12.737 26.746 25.393 18.087l110.04-75.28h130.98c31.767 0 57.528-26.06 57.528-58.194v-233.943c0-32.135-25.761-58.195-57.528-58.195z" fill="#62dbfb"/></g></g><g><path d="m454.472 41.722h-6.909c-45.194 168.732-199.158 292.979-382.147 292.979-22.284 0-44.137-1.844-65.416-5.385v4.543c0 32.135 25.761 58.194 57.528 58.194h145.028l-14.496 57.194c-3.797 14.979 12.736 26.746 25.393 18.087l110.04-75.28h130.98c31.767 0 57.528-26.06 57.528-58.194v-233.943c-.001-32.135-25.762-58.195-57.529-58.195z" fill="#01d0fb"/></g></g></svg>